<?xml version="1.0" encoding="utf-8" standalone="no"?>
<!DOCTYPE svg PUBLIC "-//W3C//DTD SVG 1.1//EN"
  "http://www.w3.org/Graphics/SVG/1.1/DTD/svg11.dtd">
<svg xmlns:xlink="http://www.w3.org/1999/xlink" width="288pt" height="576pt" viewBox="0 0 288 576" xmlns="http://www.w3.org/2000/svg" version="1.1">
 <metadata>
  <rdf:RDF xmlns:dc="http://purl.org/dc/elements/1.1/" xmlns:cc="http://creativecommons.org/ns#" xmlns:rdf="http://www.w3.org/1999/02/22-rdf-syntax-ns#">
   <cc:Work>
    <dc:type rdf:resource="http://purl.org/dc/dcmitype/StillImage"/>
    <dc:date>2023-01-12T01:00:05.318897</dc:date>
    <dc:format>image/svg+xml</dc:format>
    <dc:creator>
     <cc:Agent>
      <dc:title>Matplotlib v3.5.2, https://matplotlib.org/</dc:title>
     </cc:Agent>
    </dc:creator>
   </cc:Work>
  </rdf:RDF>
 </metadata>
 <defs>
  <style type="text/css">*{stroke-linejoin: round; stroke-linecap: butt}</style>
 </defs>
 <g id="figure_1">
  <g id="patch_1">
   <path d="M 0 576 
L 288 576 
L 288 0 
L 0 0 
z
" style="fill: #ffffff"/>
  </g>
  <g id="axes_1">
   <g id="patch_2">
    <path d="M 36.286012 556.321635 
L 256.094882 556.321635 
L 256.094882 6.799459 
L 36.286012 6.799459 
z
" style="fill: #ffffff"/>
   </g>
   <g id="matplotlib.axis_1">
    <g id="xtick_1">
     <g id="line2d_1">
      <defs>
       <path id="ma0f2817200" d="M 0 0 
L 0 3.5 
" style="stroke: #000000; stroke-width: 0.8"/>
      </defs>
      <g>
       <use xlink:href="#ma0f2817200" x="36.286012" y="556.321635" style="stroke: #000000; stroke-width: 0.8"/>
      </g>
     </g>
     <g id="text_1">
      <!-- 0.80 -->
      <g transform="translate(25.153199 570.920072)scale(0.1 -0.1)">
       <defs>
        <path id="DejaVuSans-30" d="M 2034 4250 
Q 1547 4250 1301 3770 
Q 1056 3291 1056 2328 
Q 1056 1369 1301 889 
Q 1547 409 2034 409 
Q 2525 409 2770 889 
Q 3016 1369 3016 2328 
Q 3016 3291 2770 3770 
Q 2525 4250 2034 4250 
z
M 2034 4750 
Q 2819 4750 3233 4129 
Q 3647 3509 3647 2328 
Q 3647 1150 3233 529 
Q 2819 -91 2034 -91 
Q 1250 -91 836 529 
Q 422 1150 422 2328 
Q 422 3509 836 4129 
Q 1250 4750 2034 4750 
z
" transform="scale(0.015625)"/>
        <path id="DejaVuSans-2e" d="M 684 794 
L 1344 794 
L 1344 0 
L 684 0 
L 684 794 
z
" transform="scale(0.015625)"/>
        <path id="DejaVuSans-38" d="M 2034 2216 
Q 1584 2216 1326 1975 
Q 1069 1734 1069 1313 
Q 1069 891 1326 650 
Q 1584 409 2034 409 
Q 2484 409 2743 651 
Q 3003 894 3003 1313 
Q 3003 1734 2745 1975 
Q 2488 2216 2034 2216 
z
M 1403 2484 
Q 997 2584 770 2862 
Q 544 3141 544 3541 
Q 544 4100 942 4425 
Q 1341 4750 2034 4750 
Q 2731 4750 3128 4425 
Q 3525 4100 3525 3541 
Q 3525 3141 3298 2862 
Q 3072 2584 2669 2484 
Q 3125 2378 3379 2068 
Q 3634 1759 3634 1313 
Q 3634 634 3220 271 
Q 2806 -91 2034 -91 
Q 1263 -91 848 271 
Q 434 634 434 1313 
Q 434 1759 690 2068 
Q 947 2378 1403 2484 
z
M 1172 3481 
Q 1172 3119 1398 2916 
Q 1625 2713 2034 2713 
Q 2441 2713 2670 2916 
Q 2900 3119 2900 3481 
Q 2900 3844 2670 4047 
Q 2441 4250 2034 4250 
Q 1625 4250 1398 4047 
Q 1172 3844 1172 3481 
z
" transform="scale(0.015625)"/>
       </defs>
       <use xlink:href="#DejaVuSans-30"/>
       <use xlink:href="#DejaVuSans-2e" x="63.623047"/>
       <use xlink:href="#DejaVuSans-38" x="95.410156"/>
       <use xlink:href="#DejaVuSans-30" x="159.033203"/>
      </g>
     </g>
    </g>
    <g id="xtick_2">
     <g id="line2d_2">
      <g>
       <use xlink:href="#ma0f2817200" x="91.238229" y="556.321635" style="stroke: #000000; stroke-width: 0.8"/>
      </g>
     </g>
     <g id="text_2">
      <!-- 0.85 -->
      <g transform="translate(80.105417 570.920072)scale(0.1 -0.1)">
       <defs>
        <path id="DejaVuSans-35" d="M 691 4666 
L 3169 4666 
L 3169 4134 
L 1269 4134 
L 1269 2991 
Q 1406 3038 1543 3061 
Q 1681 3084 1819 3084 
Q 2600 3084 3056 2656 
Q 3513 2228 3513 1497 
Q 3513 744 3044 326 
Q 2575 -91 1722 -91 
Q 1428 -91 1123 -41 
Q 819 9 494 109 
L 494 744 
Q 775 591 1075 516 
Q 1375 441 1709 441 
Q 2250 441 2565 725 
Q 2881 1009 2881 1497 
Q 2881 1984 2565 2268 
Q 2250 2553 1709 2553 
Q 1456 2553 1204 2497 
Q 953 2441 691 2322 
L 691 4666 
z
" transform="scale(0.015625)"/>
       </defs>
       <use xlink:href="#DejaVuSans-30"/>
       <use xlink:href="#DejaVuSans-2e" x="63.623047"/>
       <use xlink:href="#DejaVuSans-38" x="95.410156"/>
       <use xlink:href="#DejaVuSans-35" x="159.033203"/>
      </g>
     </g>
    </g>
    <g id="xtick_3">
     <g id="line2d_3">
      <g>
       <use xlink:href="#ma0f2817200" x="146.190447" y="556.321635" style="stroke: #000000; stroke-width: 0.8"/>
      </g>
     </g>
     <g id="text_3">
      <!-- 0.90 -->
      <g transform="translate(135.057634 570.920072)scale(0.1 -0.1)">
       <defs>
        <path id="DejaVuSans-39" d="M 703 97 
L 703 672 
Q 941 559 1184 500 
Q 1428 441 1663 441 
Q 2288 441 2617 861 
Q 2947 1281 2994 2138 
Q 2813 1869 2534 1725 
Q 2256 1581 1919 1581 
Q 1219 1581 811 2004 
Q 403 2428 403 3163 
Q 403 3881 828 4315 
Q 1253 4750 1959 4750 
Q 2769 4750 3195 4129 
Q 3622 3509 3622 2328 
Q 3622 1225 3098 567 
Q 2575 -91 1691 -91 
Q 1453 -91 1209 -44 
Q 966 3 703 97 
z
M 1959 2075 
Q 2384 2075 2632 2365 
Q 2881 2656 2881 3163 
Q 2881 3666 2632 3958 
Q 2384 4250 1959 4250 
Q 1534 4250 1286 3958 
Q 1038 3666 1038 3163 
Q 1038 2656 1286 2365 
Q 1534 2075 1959 2075 
z
" transform="scale(0.015625)"/>
       </defs>
       <use xlink:href="#DejaVuSans-30"/>
       <use xlink:href="#DejaVuSans-2e" x="63.623047"/>
       <use xlink:href="#DejaVuSans-39" x="95.410156"/>
       <use xlink:href="#DejaVuSans-30" x="159.033203"/>
      </g>
     </g>
    </g>
    <g id="xtick_4">
     <g id="line2d_4">
      <g>
       <use xlink:href="#ma0f2817200" x="201.142665" y="556.321635" style="stroke: #000000; stroke-width: 0.8"/>
      </g>
     </g>
     <g id="text_4">
      <!-- 0.95 -->
      <g transform="translate(190.009852 570.920072)scale(0.1 -0.1)">
       <use xlink:href="#DejaVuSans-30"/>
       <use xlink:href="#DejaVuSans-2e" x="63.623047"/>
       <use xlink:href="#DejaVuSans-39" x="95.410156"/>
       <use xlink:href="#DejaVuSans-35" x="159.033203"/>
      </g>
     </g>
    </g>
    <g id="xtick_5">
     <g id="line2d_5">
      <g>
       <use xlink:href="#ma0f2817200" x="256.094882" y="556.321635" style="stroke: #000000; stroke-width: 0.8"/>
      </g>
     </g>
     <g id="text_5">
      <!-- 1.00 -->
      <g transform="translate(244.96207 570.920072)scale(0.1 -0.1)">
       <defs>
        <path id="DejaVuSans-31" d="M 794 531 
L 1825 531 
L 1825 4091 
L 703 3866 
L 703 4441 
L 1819 4666 
L 2450 4666 
L 2450 531 
L 3481 531 
L 3481 0 
L 794 0 
L 794 531 
z
" transform="scale(0.015625)"/>
       </defs>
       <use xlink:href="#DejaVuSans-31"/>
       <use xlink:href="#DejaVuSans-2e" x="63.623047"/>
       <use xlink:href="#DejaVuSans-30" x="95.410156"/>
       <use xlink:href="#DejaVuSans-30" x="159.033203"/>
      </g>
     </g>
    </g>
   </g>
   <g id="matplotlib.axis_2">
    <g id="ytick_1">
     <g id="line2d_6">
      <defs>
       <path id="m35109028ca" d="M 0 0 
L -3.5 0 
" style="stroke: #000000; stroke-width: 0.8"/>
      </defs>
      <g>
       <use xlink:href="#m35109028ca" x="36.286012" y="556.321635" style="stroke: #000000; stroke-width: 0.8"/>
      </g>
     </g>
     <g id="text_6">
      <!-- −2.0 -->
      <g transform="translate(5.003199 560.120854)scale(0.1 -0.1)">
       <defs>
        <path id="DejaVuSans-2212" d="M 678 2272 
L 4684 2272 
L 4684 1741 
L 678 1741 
L 678 2272 
z
" transform="scale(0.015625)"/>
        <path id="DejaVuSans-32" d="M 1228 531 
L 3431 531 
L 3431 0 
L 469 0 
L 469 531 
Q 828 903 1448 1529 
Q 2069 2156 2228 2338 
Q 2531 2678 2651 2914 
Q 2772 3150 2772 3378 
Q 2772 3750 2511 3984 
Q 2250 4219 1831 4219 
Q 1534 4219 1204 4116 
Q 875 4013 500 3803 
L 500 4441 
Q 881 4594 1212 4672 
Q 1544 4750 1819 4750 
Q 2544 4750 2975 4387 
Q 3406 4025 3406 3419 
Q 3406 3131 3298 2873 
Q 3191 2616 2906 2266 
Q 2828 2175 2409 1742 
Q 1991 1309 1228 531 
z
" transform="scale(0.015625)"/>
       </defs>
       <use xlink:href="#DejaVuSans-2212"/>
       <use xlink:href="#DejaVuSans-32" x="83.789062"/>
       <use xlink:href="#DejaVuSans-2e" x="147.412109"/>
       <use xlink:href="#DejaVuSans-30" x="179.199219"/>
      </g>
     </g>
    </g>
    <g id="ytick_2">
     <g id="line2d_7">
      <g>
       <use xlink:href="#m35109028ca" x="36.286012" y="446.4172" style="stroke: #000000; stroke-width: 0.8"/>
      </g>
     </g>
     <g id="text_7">
      <!-- −1.9 -->
      <g transform="translate(5.003199 450.216418)scale(0.1 -0.1)">
       <use xlink:href="#DejaVuSans-2212"/>
       <use xlink:href="#DejaVuSans-31" x="83.789062"/>
       <use xlink:href="#DejaVuSans-2e" x="147.412109"/>
       <use xlink:href="#DejaVuSans-39" x="179.199219"/>
      </g>
     </g>
    </g>
    <g id="ytick_3">
     <g id="line2d_8">
      <g>
       <use xlink:href="#m35109028ca" x="36.286012" y="336.512764" style="stroke: #000000; stroke-width: 0.8"/>
      </g>
     </g>
     <g id="text_8">
      <!-- −1.8 -->
      <g transform="translate(5.003199 340.311983)scale(0.1 -0.1)">
       <use xlink:href="#DejaVuSans-2212"/>
       <use xlink:href="#DejaVuSans-31" x="83.789062"/>
       <use xlink:href="#DejaVuSans-2e" x="147.412109"/>
       <use xlink:href="#DejaVuSans-38" x="179.199219"/>
      </g>
     </g>
    </g>
    <g id="ytick_4">
     <g id="line2d_9">
      <g>
       <use xlink:href="#m35109028ca" x="36.286012" y="226.608329" style="stroke: #000000; stroke-width: 0.8"/>
      </g>
     </g>
     <g id="text_9">
      <!-- −1.7 -->
      <g transform="translate(5.003199 230.407548)scale(0.1 -0.1)">
       <defs>
        <path id="DejaVuSans-37" d="M 525 4666 
L 3525 4666 
L 3525 4397 
L 1831 0 
L 1172 0 
L 2766 4134 
L 525 4134 
L 525 4666 
z
" transform="scale(0.015625)"/>
       </defs>
       <use xlink:href="#DejaVuSans-2212"/>
       <use xlink:href="#DejaVuSans-31" x="83.789062"/>
       <use xlink:href="#DejaVuSans-2e" x="147.412109"/>
       <use xlink:href="#DejaVuSans-37" x="179.199219"/>
      </g>
     </g>
    </g>
    <g id="ytick_5">
     <g id="line2d_10">
      <g>
       <use xlink:href="#m35109028ca" x="36.286012" y="116.703894" style="stroke: #000000; stroke-width: 0.8"/>
      </g>
     </g>
     <g id="text_10">
      <!-- −1.6 -->
      <g transform="translate(5.003199 120.503113)scale(0.1 -0.1)">
       <defs>
        <path id="DejaVuSans-36" d="M 2113 2584 
Q 1688 2584 1439 2293 
Q 1191 2003 1191 1497 
Q 1191 994 1439 701 
Q 1688 409 2113 409 
Q 2538 409 2786 701 
Q 3034 994 3034 1497 
Q 3034 2003 2786 2293 
Q 2538 2584 2113 2584 
z
M 3366 4563 
L 3366 3988 
Q 3128 4100 2886 4159 
Q 2644 4219 2406 4219 
Q 1781 4219 1451 3797 
Q 1122 3375 1075 2522 
Q 1259 2794 1537 2939 
Q 1816 3084 2150 3084 
Q 2853 3084 3261 2657 
Q 3669 2231 3669 1497 
Q 3669 778 3244 343 
Q 2819 -91 2113 -91 
Q 1303 -91 875 529 
Q 447 1150 447 2328 
Q 447 3434 972 4092 
Q 1497 4750 2381 4750 
Q 2619 4750 2861 4703 
Q 3103 4656 3366 4563 
z
" transform="scale(0.015625)"/>
       </defs>
       <use xlink:href="#DejaVuSans-2212"/>
       <use xlink:href="#DejaVuSans-31" x="83.789062"/>
       <use xlink:href="#DejaVuSans-2e" x="147.412109"/>
       <use xlink:href="#DejaVuSans-36" x="179.199219"/>
      </g>
     </g>
    </g>
    <g id="ytick_6">
     <g id="line2d_11">
      <g>
       <use xlink:href="#m35109028ca" x="36.286012" y="6.799459" style="stroke: #000000; stroke-width: 0.8"/>
      </g>
     </g>
     <g id="text_11">
      <!-- −1.5 -->
      <g transform="translate(5.003199 10.598677)scale(0.1 -0.1)">
       <use xlink:href="#DejaVuSans-2212"/>
       <use xlink:href="#DejaVuSans-31" x="83.789062"/>
       <use xlink:href="#DejaVuSans-2e" x="147.412109"/>
       <use xlink:href="#DejaVuSans-35" x="179.199219"/>
      </g>
     </g>
    </g>
   </g>
   <g id="PathCollection_1"/>
   <g id="PathCollection_2">
    <path clip-path="url(#p6ed5c3b318)" style="fill: none; stroke: #808080; stroke-width: 1.5"/>
    <path clip-path="url(#p6ed5c3b318)" style="fill: none; stroke: #808080; stroke-width: 1.5"/>
   </g>
   <g id="PathCollection_3">
    <path clip-path="url(#p6ed5c3b318)" style="fill: none; stroke: #808080; stroke-width: 1.5"/>
    <path clip-path="url(#p6ed5c3b318)" style="fill: none; stroke: #808080; stroke-width: 1.5"/>
    <path d="M 0 0 
" clip-path="url(#p6ed5c3b318)" style="fill: none; stroke: #808080; stroke-width: 1.5"/>
   </g>
   <g id="PathCollection_4">
    <path d="M 0 0 
" clip-path="url(#p6ed5c3b318)" style="fill: none; stroke: #808080; stroke-width: 1.5"/>
    <path d="M -1 337.97268 
L 11.407644 364.075654 
L 30.185761 402.433936 
L 33.610205 410.614997 
L 48.963877 441.39997 
L 56.008317 457.796194 
L 67.741993 481.02528 
L 78.238934 504.977391 
L 86.52011 521.230276 
L 100.276175 552.158588 
L 105.298226 561.96317 
L 112.057561 577 
L 112.057561 577 
" clip-path="url(#p6ed5c3b318)" style="fill: none; stroke: #808080; stroke-width: 1.5"/>
   </g>
   <g id="PathCollection_5">
    <path d="M 196.961411 -1 
L 185.3619 33.165422 
L 172.469266 80.346619 
L 162.855147 127.527816 
L 156.097321 174.709013 
L 152.341858 221.89021 
L 151.377674 269.071407 
L 152.963053 316.252603 
L 156.901457 363.4338 
L 161.632575 399.30094 
L 162.946165 410.614997 
L 170.63312 457.796194 
L 180.410692 505.999263 
L 190.768441 552.158588 
L 197.295219 577 
L 197.295219 577 
" clip-path="url(#p6ed5c3b318)" style="fill: none; stroke: #808080; stroke-width: 1.5"/>
   </g>
   <g id="PathCollection_6">
    <path d="M 289 124.339823 
L 288.049339 127.527816 
L 276.244662 174.709013 
L 274.301274 184.210056 
L 266.708169 221.89021 
L 259.631155 269.071407 
L 254.869863 316.252603 
L 252.168815 363.4338 
L 251.583048 410.614997 
L 252.964649 457.796194 
L 256.153235 504.977391 
L 260.855212 552.158588 
L 264.147525 577 
L 264.147525 577 
" clip-path="url(#p6ed5c3b318)" style="fill: none; stroke: #808080; stroke-width: 1.5"/>
   </g>
   <g id="PathCollection_7">
    <path clip-path="url(#p6ed5c3b318)" style="fill: none; stroke: #808080; stroke-width: 1.5"/>
    <path clip-path="url(#p6ed5c3b318)" style="fill: none; stroke: #808080; stroke-width: 1.5"/>
   </g>
   <g id="PathCollection_8">
    <path clip-path="url(#p6ed5c3b318)" style="fill: none; stroke: #808080; stroke-width: 1.5"/>
    <path clip-path="url(#p6ed5c3b318)" style="fill: none; stroke: #808080; stroke-width: 1.5"/>
   </g>
   <g id="PathCollection_9">
    <path clip-path="url(#p6ed5c3b318)" style="fill: none; stroke: #808080; stroke-width: 1.5"/>
    <path clip-path="url(#p6ed5c3b318)" style="fill: none; stroke: #808080; stroke-width: 1.5"/>
   </g>
   <g id="PathCollection_10">
    <path clip-path="url(#p6ed5c3b318)" style="fill: none; stroke: #808080; stroke-width: 1.5"/>
    <path clip-path="url(#p6ed5c3b318)" style="fill: none; stroke: #808080; stroke-width: 1.5"/>
   </g>
   <g id="PathCollection_11">
    <path clip-path="url(#p6ed5c3b318)" style="fill: none; stroke: #808080; stroke-width: 1.5"/>
    <path clip-path="url(#p6ed5c3b318)" style="fill: none; stroke: #808080; stroke-width: 1.5"/>
   </g>
   <g id="PathCollection_12">
    <path clip-path="url(#p6ed5c3b318)" style="fill: none; stroke: #808080; stroke-width: 1.5"/>
    <path clip-path="url(#p6ed5c3b318)" style="fill: none; stroke: #808080; stroke-width: 1.5"/>
   </g>
   <g id="PathCollection_13">
    <path clip-path="url(#p6ed5c3b318)" style="fill: none; stroke: #808080; stroke-width: 1.5"/>
    <path clip-path="url(#p6ed5c3b318)" style="fill: none; stroke: #808080; stroke-width: 1.5"/>
   </g>
   <g id="PathCollection_14">
    <path clip-path="url(#p6ed5c3b318)" style="fill: none; stroke: #808080; stroke-width: 1.5"/>
    <path clip-path="url(#p6ed5c3b318)" style="fill: none; stroke: #808080; stroke-width: 1.5"/>
   </g>
   <g id="PathCollection_15">
    <path clip-path="url(#p6ed5c3b318)" style="fill: none; stroke: #808080; stroke-width: 1.5"/>
    <path clip-path="url(#p6ed5c3b318)" style="fill: none; stroke: #808080; stroke-width: 1.5"/>
   </g>
   <g id="PathCollection_16">
    <path clip-path="url(#p6ed5c3b318)" style="fill: none; stroke: #808080; stroke-width: 1.5"/>
    <path clip-path="url(#p6ed5c3b318)" style="fill: none; stroke: #808080; stroke-width: 1.5"/>
   </g>
   <g id="PathCollection_17">
    <path clip-path="url(#p6ed5c3b318)" style="fill: none; stroke: #808080; stroke-width: 1.5"/>
    <path clip-path="url(#p6ed5c3b318)" style="fill: none; stroke: #808080; stroke-width: 1.5"/>
   </g>
   <g id="PathCollection_18">
    <path clip-path="url(#p6ed5c3b318)" style="fill: none; stroke: #808080; stroke-width: 1.5"/>
    <path clip-path="url(#p6ed5c3b318)" style="fill: none; stroke: #808080; stroke-width: 1.5"/>
   </g>
   <g id="PathCollection_19">
    <path clip-path="url(#p6ed5c3b318)" style="fill: none; stroke: #808080; stroke-width: 1.5"/>
    <path clip-path="url(#p6ed5c3b318)" style="fill: none; stroke: #808080; stroke-width: 1.5"/>
   </g>
   <g id="PathCollection_20">
    <path clip-path="url(#p6ed5c3b318)" style="fill: none; stroke: #808080; stroke-width: 1.5"/>
    <path clip-path="url(#p6ed5c3b318)" style="fill: none; stroke: #808080; stroke-width: 1.5"/>
   </g>
   <g id="PathCollection_21">
    <path clip-path="url(#p6ed5c3b318)" style="fill: none; stroke: #808080; stroke-width: 1.5"/>
    <path clip-path="url(#p6ed5c3b318)" style="fill: none; stroke: #808080; stroke-width: 1.5"/>
   </g>
   <g id="PathCollection_22">
    <path clip-path="url(#p6ed5c3b318)" style="fill: none; stroke: #808080; stroke-width: 1.5"/>
    <path clip-path="url(#p6ed5c3b318)" style="fill: none; stroke: #808080; stroke-width: 1.5"/>
   </g>
   <g id="PathCollection_23">
    <path clip-path="url(#p6ed5c3b318)" style="fill: none; stroke: #808080; stroke-width: 1.5"/>
    <path clip-path="url(#p6ed5c3b318)" style="fill: none; stroke: #808080; stroke-width: 1.5"/>
   </g>
   <g id="PathCollection_24">
    <path clip-path="url(#p6ed5c3b318)" style="fill: none; stroke: #808080; stroke-width: 1.5"/>
    <path clip-path="url(#p6ed5c3b318)" style="fill: none; stroke: #808080; stroke-width: 1.5"/>
   </g>
   <g id="PathCollection_25">
    <path clip-path="url(#p6ed5c3b318)" style="fill: none; stroke: #808080; stroke-width: 1.5"/>
    <path clip-path="url(#p6ed5c3b318)" style="fill: none; stroke: #808080; stroke-width: 1.5"/>
   </g>
   <g id="PathCollection_26">
    <path clip-path="url(#p6ed5c3b318)" style="fill: none; stroke: #808080; stroke-width: 1.5"/>
    <path clip-path="url(#p6ed5c3b318)" style="fill: none; stroke: #808080; stroke-width: 1.5"/>
   </g>
   <g id="PathCollection_27">
    <path clip-path="url(#p6ed5c3b318)" style="fill: none; stroke: #808080; stroke-width: 1.5"/>
    <path clip-path="url(#p6ed5c3b318)" style="fill: none; stroke: #808080; stroke-width: 1.5"/>
   </g>
   <g id="PathCollection_28">
    <path clip-path="url(#p6ed5c3b318)" style="fill: none; stroke: #808080; stroke-width: 1.5"/>
    <path clip-path="url(#p6ed5c3b318)" style="fill: none; stroke: #808080; stroke-width: 1.5"/>
   </g>
   <g id="PathCollection_29">
    <path clip-path="url(#p6ed5c3b318)" style="fill: none; stroke: #808080; stroke-width: 1.5"/>
    <path clip-path="url(#p6ed5c3b318)" style="fill: none; stroke: #808080; stroke-width: 1.5"/>
   </g>
   <g id="PathCollection_30">
    <path clip-path="url(#p6ed5c3b318)" style="fill: none; stroke: #808080; stroke-width: 1.5"/>
    <path clip-path="url(#p6ed5c3b318)" style="fill: none; stroke: #808080; stroke-width: 1.5"/>
   </g>
   <g id="PathCollection_31">
    <path clip-path="url(#p6ed5c3b318)" style="fill: none; stroke: #808080; stroke-width: 1.5"/>
    <path clip-path="url(#p6ed5c3b318)" style="fill: none; stroke: #808080; stroke-width: 1.5"/>
   </g>
   <g id="PathCollection_32">
    <path clip-path="url(#p6ed5c3b318)" style="fill: none; stroke: #808080; stroke-width: 1.5"/>
    <path clip-path="url(#p6ed5c3b318)" style="fill: none; stroke: #808080; stroke-width: 1.5"/>
   </g>
   <g id="PathCollection_33">
    <path clip-path="url(#p6ed5c3b318)" style="fill: none; stroke: #808080; stroke-width: 1.5"/>
    <path clip-path="url(#p6ed5c3b318)" style="fill: none; stroke: #808080; stroke-width: 1.5"/>
   </g>
   <g id="PathCollection_34">
    <path clip-path="url(#p6ed5c3b318)" style="fill: none; stroke: #808080; stroke-width: 1.5"/>
    <path clip-path="url(#p6ed5c3b318)" style="fill: none; stroke: #808080; stroke-width: 1.5"/>
   </g>
   <g id="PathCollection_35">
    <path clip-path="url(#p6ed5c3b318)" style="fill: none; stroke: #808080; stroke-width: 1.5"/>
    <path clip-path="url(#p6ed5c3b318)" style="fill: none; stroke: #808080; stroke-width: 1.5"/>
   </g>
   <g id="PathCollection_36">
    <path clip-path="url(#p6ed5c3b318)" style="fill: none; stroke: #808080; stroke-width: 1.5"/>
    <path clip-path="url(#p6ed5c3b318)" style="fill: none; stroke: #808080; stroke-width: 1.5"/>
   </g>
   <g id="PathCollection_37"/>
   <g id="line2d_12">
    <path d="M -1 336.512764 
L 289 336.512764 
" clip-path="url(#p6ed5c3b318)" style="fill: none; stroke: #000000; stroke-width: 2; stroke-linecap: square"/>
   </g>
   <g id="line2d_13">
    <defs>
     <path id="mf1a17c0e1f" d="M -3 3 
L 3 -3 
M -3 -3 
L 3 3 
" style="stroke: #ff0000"/>
    </defs>
    <g clip-path="url(#p6ed5c3b318)">
     <use xlink:href="#mf1a17c0e1f" x="134.905235" y="31.896403" style="fill: #ff0000; stroke: #ff0000"/>
     <use xlink:href="#mf1a17c0e1f" x="128.599975" y="56.711255" style="fill: #ff0000; stroke: #ff0000"/>
     <use xlink:href="#mf1a17c0e1f" x="123.761362" y="79.101636" style="fill: #ff0000; stroke: #ff0000"/>
     <use xlink:href="#mf1a17c0e1f" x="119.092332" y="105.428911" style="fill: #ff0000; stroke: #ff0000"/>
     <use xlink:href="#mf1a17c0e1f" x="114.945343" y="136.724826" style="fill: #ff0000; stroke: #ff0000"/>
     <use xlink:href="#mf1a17c0e1f" x="111.979087" y="173.052693" style="fill: #ff0000; stroke: #ff0000"/>
     <use xlink:href="#mf1a17c0e1f" x="110.889381" y="213.901462" style="fill: #ff0000; stroke: #ff0000"/>
     <use xlink:href="#mf1a17c0e1f" x="112.203089" y="258.259748" style="fill: #ff0000; stroke: #ff0000"/>
     <use xlink:href="#mf1a17c0e1f" x="116.108544" y="304.791905" style="fill: #ff0000; stroke: #ff0000"/>
     <use xlink:href="#mf1a17c0e1f" x="122.571032" y="353.016929" style="fill: #ff0000; stroke: #ff0000"/>
     <use xlink:href="#mf1a17c0e1f" x="131.540029" y="403.142401" style="fill: #ff0000; stroke: #ff0000"/>
     <use xlink:href="#mf1a17c0e1f" x="142.827496" y="454.856054" style="fill: #ff0000; stroke: #ff0000"/>
     <use xlink:href="#mf1a17c0e1f" x="156.200016" y="507.955352" style="fill: #ff0000; stroke: #ff0000"/>
    </g>
   </g>
   <g id="line2d_14">
    <defs>
     <path id="m3606996d73" d="M 0 0.25 
C 0.066301 0.25 0.129895 0.223658 0.176777 0.176777 
C 0.223658 0.129895 0.25 0.066301 0.25 0 
C 0.25 -0.066301 0.223658 -0.129895 0.176777 -0.176777 
C 0.129895 -0.223658 0.066301 -0.25 0 -0.25 
C -0.066301 -0.25 -0.129895 -0.223658 -0.176777 -0.176777 
C -0.223658 -0.129895 -0.25 -0.066301 -0.25 0 
C -0.25 0.066301 -0.223658 0.129895 -0.176777 0.176777 
C -0.129895 0.223658 -0.066301 0.25 0 0.25 
z
" style="stroke: #0000ff"/>
    </defs>
    <g clip-path="url(#p6ed5c3b318)">
     <use xlink:href="#m3606996d73" x="134.905235" y="31.896403" style="fill: #0000ff; stroke: #0000ff"/>
     <use xlink:href="#m3606996d73" x="134.175657" y="34.579084" style="fill: #0000ff; stroke: #0000ff"/>
     <use xlink:href="#m3606996d73" x="133.456929" y="37.264691" style="fill: #0000ff; stroke: #0000ff"/>
     <use xlink:href="#m3606996d73" x="132.749094" y="39.95319" style="fill: #0000ff; stroke: #0000ff"/>
     <use xlink:href="#m3606996d73" x="132.052197" y="42.644545" style="fill: #0000ff; stroke: #0000ff"/>
     <use xlink:href="#m3606996d73" x="131.366282" y="45.33872" style="fill: #0000ff; stroke: #0000ff"/>
     <use xlink:href="#m3606996d73" x="130.691393" y="48.035678" style="fill: #0000ff; stroke: #0000ff"/>
     <use xlink:href="#m3606996d73" x="130.027571" y="50.735382" style="fill: #0000ff; stroke: #0000ff"/>
     <use xlink:href="#m3606996d73" x="129.374855" y="53.437792" style="fill: #0000ff; stroke: #0000ff"/>
     <use xlink:href="#m3606996d73" x="128.733283" y="56.142869" style="fill: #0000ff; stroke: #0000ff"/>
     <use xlink:href="#m3606996d73" x="128.10289" y="58.850573" style="fill: #0000ff; stroke: #0000ff"/>
     <use xlink:href="#m3606996d73" x="127.48371" y="61.560864" style="fill: #0000ff; stroke: #0000ff"/>
     <use xlink:href="#m3606996d73" x="126.875776" y="64.273698" style="fill: #0000ff; stroke: #0000ff"/>
     <use xlink:href="#m3606996d73" x="126.279117" y="66.989035" style="fill: #0000ff; stroke: #0000ff"/>
     <use xlink:href="#m3606996d73" x="125.69376" y="69.706832" style="fill: #0000ff; stroke: #0000ff"/>
     <use xlink:href="#m3606996d73" x="125.119733" y="72.427043" style="fill: #0000ff; stroke: #0000ff"/>
     <use xlink:href="#m3606996d73" x="124.557059" y="75.149625" style="fill: #0000ff; stroke: #0000ff"/>
     <use xlink:href="#m3606996d73" x="124.00576" y="77.874534" style="fill: #0000ff; stroke: #0000ff"/>
     <use xlink:href="#m3606996d73" x="123.465855" y="80.601723" style="fill: #0000ff; stroke: #0000ff"/>
     <use xlink:href="#m3606996d73" x="122.937364" y="83.331147" style="fill: #0000ff; stroke: #0000ff"/>
     <use xlink:href="#m3606996d73" x="122.420301" y="86.062759" style="fill: #0000ff; stroke: #0000ff"/>
     <use xlink:href="#m3606996d73" x="121.914681" y="88.796512" style="fill: #0000ff; stroke: #0000ff"/>
     <use xlink:href="#m3606996d73" x="121.420515" y="91.532359" style="fill: #0000ff; stroke: #0000ff"/>
     <use xlink:href="#m3606996d73" x="120.937812" y="94.270251" style="fill: #0000ff; stroke: #0000ff"/>
     <use xlink:href="#m3606996d73" x="120.466579" y="97.010142" style="fill: #0000ff; stroke: #0000ff"/>
     <use xlink:href="#m3606996d73" x="120.006823" y="99.751981" style="fill: #0000ff; stroke: #0000ff"/>
     <use xlink:href="#m3606996d73" x="119.558546" y="102.49572" style="fill: #0000ff; stroke: #0000ff"/>
     <use xlink:href="#m3606996d73" x="119.121748" y="105.24131" style="fill: #0000ff; stroke: #0000ff"/>
     <use xlink:href="#m3606996d73" x="118.696429" y="107.988702" style="fill: #0000ff; stroke: #0000ff"/>
     <use xlink:href="#m3606996d73" x="118.282586" y="110.737846" style="fill: #0000ff; stroke: #0000ff"/>
     <use xlink:href="#m3606996d73" x="117.880215" y="113.488692" style="fill: #0000ff; stroke: #0000ff"/>
     <use xlink:href="#m3606996d73" x="117.489318" y="116.241192" style="fill: #0000ff; stroke: #0000ff"/>
     <use xlink:href="#m3606996d73" x="117.109892" y="118.995297" style="fill: #0000ff; stroke: #0000ff"/>
     <use xlink:href="#m3606996d73" x="116.741935" y="121.750958" style="fill: #0000ff; stroke: #0000ff"/>
     <use xlink:href="#m3606996d73" x="116.38544" y="124.508124" style="fill: #0000ff; stroke: #0000ff"/>
     <use xlink:href="#m3606996d73" x="116.0404" y="127.266748" style="fill: #0000ff; stroke: #0000ff"/>
     <use xlink:href="#m3606996d73" x="115.706804" y="130.026779" style="fill: #0000ff; stroke: #0000ff"/>
     <use xlink:href="#m3606996d73" x="115.384641" y="132.788168" style="fill: #0000ff; stroke: #0000ff"/>
     <use xlink:href="#m3606996d73" x="115.073895" y="135.550865" style="fill: #0000ff; stroke: #0000ff"/>
     <use xlink:href="#m3606996d73" x="114.77455" y="138.314821" style="fill: #0000ff; stroke: #0000ff"/>
     <use xlink:href="#m3606996d73" x="114.486589" y="141.079985" style="fill: #0000ff; stroke: #0000ff"/>
     <use xlink:href="#m3606996d73" x="114.209989" y="143.84631" style="fill: #0000ff; stroke: #0000ff"/>
     <use xlink:href="#m3606996d73" x="113.944728" y="146.613744" style="fill: #0000ff; stroke: #0000ff"/>
     <use xlink:href="#m3606996d73" x="113.690782" y="149.38224" style="fill: #0000ff; stroke: #0000ff"/>
     <use xlink:href="#m3606996d73" x="113.448123" y="152.151748" style="fill: #0000ff; stroke: #0000ff"/>
     <use xlink:href="#m3606996d73" x="113.216723" y="154.922219" style="fill: #0000ff; stroke: #0000ff"/>
     <use xlink:href="#m3606996d73" x="112.996551" y="157.693606" style="fill: #0000ff; stroke: #0000ff"/>
     <use xlink:href="#m3606996d73" x="112.787574" y="160.465858" style="fill: #0000ff; stroke: #0000ff"/>
     <use xlink:href="#m3606996d73" x="112.589756" y="163.23893" style="fill: #0000ff; stroke: #0000ff"/>
     <use xlink:href="#m3606996d73" x="112.403063" y="166.012773" style="fill: #0000ff; stroke: #0000ff"/>
     <use xlink:href="#m3606996d73" x="112.227454" y="168.787339" style="fill: #0000ff; stroke: #0000ff"/>
     <use xlink:href="#m3606996d73" x="112.06289" y="171.562583" style="fill: #0000ff; stroke: #0000ff"/>
     <use xlink:href="#m3606996d73" x="111.909328" y="174.338457" style="fill: #0000ff; stroke: #0000ff"/>
     <use xlink:href="#m3606996d73" x="111.766725" y="177.114915" style="fill: #0000ff; stroke: #0000ff"/>
     <use xlink:href="#m3606996d73" x="111.635034" y="179.891913" style="fill: #0000ff; stroke: #0000ff"/>
     <use xlink:href="#m3606996d73" x="111.514209" y="182.669404" style="fill: #0000ff; stroke: #0000ff"/>
     <use xlink:href="#m3606996d73" x="111.404201" y="185.447345" style="fill: #0000ff; stroke: #0000ff"/>
     <use xlink:href="#m3606996d73" x="111.304967" y="188.225692" style="fill: #0000ff; stroke: #0000ff"/>
     <use xlink:href="#m3606996d73" x="111.216463" y="191.004401" style="fill: #0000ff; stroke: #0000ff"/>
     <use xlink:href="#m3606996d73" x="111.138643" y="193.78343" style="fill: #0000ff; stroke: #0000ff"/>
     <use xlink:href="#m3606996d73" x="111.071461" y="196.562736" style="fill: #0000ff; stroke: #0000ff"/>
     <use xlink:href="#m3606996d73" x="111.014868" y="199.342279" style="fill: #0000ff; stroke: #0000ff"/>
     <use xlink:href="#m3606996d73" x="110.968814" y="202.122015" style="fill: #0000ff; stroke: #0000ff"/>
     <use xlink:href="#m3606996d73" x="110.933246" y="204.901906" style="fill: #0000ff; stroke: #0000ff"/>
     <use xlink:href="#m3606996d73" x="110.908112" y="207.681911" style="fill: #0000ff; stroke: #0000ff"/>
     <use xlink:href="#m3606996d73" x="110.893357" y="210.46199" style="fill: #0000ff; stroke: #0000ff"/>
     <use xlink:href="#m3606996d73" x="110.888924" y="213.242105" style="fill: #0000ff; stroke: #0000ff"/>
     <use xlink:href="#m3606996d73" x="110.894757" y="216.022217" style="fill: #0000ff; stroke: #0000ff"/>
     <use xlink:href="#m3606996d73" x="110.910796" y="218.802289" style="fill: #0000ff; stroke: #0000ff"/>
     <use xlink:href="#m3606996d73" x="110.936982" y="221.582284" style="fill: #0000ff; stroke: #0000ff"/>
     <use xlink:href="#m3606996d73" x="110.973252" y="224.362165" style="fill: #0000ff; stroke: #0000ff"/>
     <use xlink:href="#m3606996d73" x="111.019545" y="227.141898" style="fill: #0000ff; stroke: #0000ff"/>
     <use xlink:href="#m3606996d73" x="111.075797" y="229.921447" style="fill: #0000ff; stroke: #0000ff"/>
     <use xlink:href="#m3606996d73" x="111.141942" y="232.700779" style="fill: #0000ff; stroke: #0000ff"/>
     <use xlink:href="#m3606996d73" x="111.217916" y="235.479859" style="fill: #0000ff; stroke: #0000ff"/>
     <use xlink:href="#m3606996d73" x="111.30365" y="238.258655" style="fill: #0000ff; stroke: #0000ff"/>
     <use xlink:href="#m3606996d73" x="111.399078" y="241.037135" style="fill: #0000ff; stroke: #0000ff"/>
     <use xlink:href="#m3606996d73" x="111.504129" y="243.815267" style="fill: #0000ff; stroke: #0000ff"/>
     <use xlink:href="#m3606996d73" x="111.618735" y="246.593023" style="fill: #0000ff; stroke: #0000ff"/>
     <use xlink:href="#m3606996d73" x="111.742825" y="249.37037" style="fill: #0000ff; stroke: #0000ff"/>
     <use xlink:href="#m3606996d73" x="111.876327" y="252.147281" style="fill: #0000ff; stroke: #0000ff"/>
     <use xlink:href="#m3606996d73" x="112.019169" y="254.923727" style="fill: #0000ff; stroke: #0000ff"/>
     <use xlink:href="#m3606996d73" x="112.171279" y="257.699681" style="fill: #0000ff; stroke: #0000ff"/>
     <use xlink:href="#m3606996d73" x="112.332588" y="260.475116" style="fill: #0000ff; stroke: #0000ff"/>
     <use xlink:href="#m3606996d73" x="112.503029" y="263.250005" style="fill: #0000ff; stroke: #0000ff"/>
     <use xlink:href="#m3606996d73" x="112.682537" y="266.024322" style="fill: #0000ff; stroke: #0000ff"/>
     <use xlink:href="#m3606996d73" x="112.871043" y="268.798042" style="fill: #0000ff; stroke: #0000ff"/>
     <use xlink:href="#m3606996d73" x="113.06848" y="271.57114" style="fill: #0000ff; stroke: #0000ff"/>
     <use xlink:href="#m3606996d73" x="113.274777" y="274.343594" style="fill: #0000ff; stroke: #0000ff"/>
     <use xlink:href="#m3606996d73" x="113.489865" y="277.115379" style="fill: #0000ff; stroke: #0000ff"/>
     <use xlink:href="#m3606996d73" x="113.713674" y="279.886474" style="fill: #0000ff; stroke: #0000ff"/>
     <use xlink:href="#m3606996d73" x="113.946133" y="282.656857" style="fill: #0000ff; stroke: #0000ff"/>
     <use xlink:href="#m3606996d73" x="114.187171" y="285.426507" style="fill: #0000ff; stroke: #0000ff"/>
     <use xlink:href="#m3606996d73" x="114.436716" y="288.195403" style="fill: #0000ff; stroke: #0000ff"/>
     <use xlink:href="#m3606996d73" x="114.694695" y="290.963526" style="fill: #0000ff; stroke: #0000ff"/>
     <use xlink:href="#m3606996d73" x="114.961035" y="293.730856" style="fill: #0000ff; stroke: #0000ff"/>
     <use xlink:href="#m3606996d73" x="115.235664" y="296.497377" style="fill: #0000ff; stroke: #0000ff"/>
     <use xlink:href="#m3606996d73" x="115.518507" y="299.26307" style="fill: #0000ff; stroke: #0000ff"/>
     <use xlink:href="#m3606996d73" x="115.809492" y="302.027918" style="fill: #0000ff; stroke: #0000ff"/>
     <use xlink:href="#m3606996d73" x="116.108544" y="304.791905" style="fill: #0000ff; stroke: #0000ff"/>
     <use xlink:href="#m3606996d73" x="116.415588" y="307.555016" style="fill: #0000ff; stroke: #0000ff"/>
     <use xlink:href="#m3606996d73" x="116.730549" y="310.317236" style="fill: #0000ff; stroke: #0000ff"/>
     <use xlink:href="#m3606996d73" x="117.053354" y="313.07855" style="fill: #0000ff; stroke: #0000ff"/>
     <use xlink:href="#m3606996d73" x="117.383927" y="315.838945" style="fill: #0000ff; stroke: #0000ff"/>
     <use xlink:href="#m3606996d73" x="117.722193" y="318.598407" style="fill: #0000ff; stroke: #0000ff"/>
     <use xlink:href="#m3606996d73" x="118.068077" y="321.356925" style="fill: #0000ff; stroke: #0000ff"/>
     <use xlink:href="#m3606996d73" x="118.421503" y="324.114487" style="fill: #0000ff; stroke: #0000ff"/>
     <use xlink:href="#m3606996d73" x="118.782396" y="326.871082" style="fill: #0000ff; stroke: #0000ff"/>
     <use xlink:href="#m3606996d73" x="119.150681" y="329.626699" style="fill: #0000ff; stroke: #0000ff"/>
     <use xlink:href="#m3606996d73" x="119.526285" y="332.381327" style="fill: #0000ff; stroke: #0000ff"/>
     <use xlink:href="#m3606996d73" x="119.909139" y="335.134958" style="fill: #0000ff; stroke: #0000ff"/>
     <use xlink:href="#m3606996d73" x="120.299177" y="337.88758" style="fill: #0000ff; stroke: #0000ff"/>
     <use xlink:href="#m3606996d73" x="120.696328" y="340.639184" style="fill: #0000ff; stroke: #0000ff"/>
     <use xlink:href="#m3606996d73" x="121.100526" y="343.389763" style="fill: #0000ff; stroke: #0000ff"/>
     <use xlink:href="#m3606996d73" x="121.511702" y="346.139307" style="fill: #0000ff; stroke: #0000ff"/>
     <use xlink:href="#m3606996d73" x="121.929788" y="348.887809" style="fill: #0000ff; stroke: #0000ff"/>
     <use xlink:href="#m3606996d73" x="122.354714" y="351.635261" style="fill: #0000ff; stroke: #0000ff"/>
     <use xlink:href="#m3606996d73" x="122.786413" y="354.381658" style="fill: #0000ff; stroke: #0000ff"/>
     <use xlink:href="#m3606996d73" x="123.224816" y="357.126992" style="fill: #0000ff; stroke: #0000ff"/>
     <use xlink:href="#m3606996d73" x="123.669855" y="359.871258" style="fill: #0000ff; stroke: #0000ff"/>
     <use xlink:href="#m3606996d73" x="124.121462" y="362.614451" style="fill: #0000ff; stroke: #0000ff"/>
     <use xlink:href="#m3606996d73" x="124.579568" y="365.356567" style="fill: #0000ff; stroke: #0000ff"/>
     <use xlink:href="#m3606996d73" x="125.044106" y="368.0976" style="fill: #0000ff; stroke: #0000ff"/>
     <use xlink:href="#m3606996d73" x="125.515006" y="370.837547" style="fill: #0000ff; stroke: #0000ff"/>
     <use xlink:href="#m3606996d73" x="125.992203" y="373.576405" style="fill: #0000ff; stroke: #0000ff"/>
     <use xlink:href="#m3606996d73" x="126.475627" y="376.31417" style="fill: #0000ff; stroke: #0000ff"/>
     <use xlink:href="#m3606996d73" x="126.965211" y="379.05084" style="fill: #0000ff; stroke: #0000ff"/>
     <use xlink:href="#m3606996d73" x="127.460888" y="381.786414" style="fill: #0000ff; stroke: #0000ff"/>
     <use xlink:href="#m3606996d73" x="127.962592" y="384.520888" style="fill: #0000ff; stroke: #0000ff"/>
     <use xlink:href="#m3606996d73" x="128.470254" y="387.254263" style="fill: #0000ff; stroke: #0000ff"/>
     <use xlink:href="#m3606996d73" x="128.983809" y="389.986537" style="fill: #0000ff; stroke: #0000ff"/>
     <use xlink:href="#m3606996d73" x="129.503189" y="392.717709" style="fill: #0000ff; stroke: #0000ff"/>
     <use xlink:href="#m3606996d73" x="130.028329" y="395.447779" style="fill: #0000ff; stroke: #0000ff"/>
     <use xlink:href="#m3606996d73" x="130.559164" y="398.176748" style="fill: #0000ff; stroke: #0000ff"/>
     <use xlink:href="#m3606996d73" x="131.095626" y="400.904617" style="fill: #0000ff; stroke: #0000ff"/>
     <use xlink:href="#m3606996d73" x="131.637652" y="403.631385" style="fill: #0000ff; stroke: #0000ff"/>
     <use xlink:href="#m3606996d73" x="132.185181" y="406.357054" style="fill: #0000ff; stroke: #0000ff"/>
     <use xlink:href="#m3606996d73" x="132.738155" y="409.081623" style="fill: #0000ff; stroke: #0000ff"/>
     <use xlink:href="#m3606996d73" x="133.296515" y="411.805093" style="fill: #0000ff; stroke: #0000ff"/>
     <use xlink:href="#m3606996d73" x="133.860205" y="414.527466" style="fill: #0000ff; stroke: #0000ff"/>
     <use xlink:href="#m3606996d73" x="134.429166" y="417.248741" style="fill: #0000ff; stroke: #0000ff"/>
     <use xlink:href="#m3606996d73" x="135.003342" y="419.968922" style="fill: #0000ff; stroke: #0000ff"/>
     <use xlink:href="#m3606996d73" x="135.582674" y="422.688008" style="fill: #0000ff; stroke: #0000ff"/>
     <use xlink:href="#m3606996d73" x="136.167107" y="425.406003" style="fill: #0000ff; stroke: #0000ff"/>
     <use xlink:href="#m3606996d73" x="136.756584" y="428.122908" style="fill: #0000ff; stroke: #0000ff"/>
     <use xlink:href="#m3606996d73" x="137.351047" y="430.838727" style="fill: #0000ff; stroke: #0000ff"/>
     <use xlink:href="#m3606996d73" x="137.950441" y="433.553462" style="fill: #0000ff; stroke: #0000ff"/>
     <use xlink:href="#m3606996d73" x="138.554709" y="436.267116" style="fill: #0000ff; stroke: #0000ff"/>
     <use xlink:href="#m3606996d73" x="139.163796" y="438.979692" style="fill: #0000ff; stroke: #0000ff"/>
     <use xlink:href="#m3606996d73" x="139.777647" y="441.691194" style="fill: #0000ff; stroke: #0000ff"/>
     <use xlink:href="#m3606996d73" x="140.396205" y="444.401627" style="fill: #0000ff; stroke: #0000ff"/>
     <use xlink:href="#m3606996d73" x="141.019416" y="447.110993" style="fill: #0000ff; stroke: #0000ff"/>
     <use xlink:href="#m3606996d73" x="141.647226" y="449.819297" style="fill: #0000ff; stroke: #0000ff"/>
     <use xlink:href="#m3606996d73" x="142.279579" y="452.526544" style="fill: #0000ff; stroke: #0000ff"/>
     <use xlink:href="#m3606996d73" x="142.916423" y="455.232739" style="fill: #0000ff; stroke: #0000ff"/>
     <use xlink:href="#m3606996d73" x="143.557702" y="457.937885" style="fill: #0000ff; stroke: #0000ff"/>
     <use xlink:href="#m3606996d73" x="144.203364" y="460.64199" style="fill: #0000ff; stroke: #0000ff"/>
     <use xlink:href="#m3606996d73" x="144.853354" y="463.345056" style="fill: #0000ff; stroke: #0000ff"/>
     <use xlink:href="#m3606996d73" x="145.507621" y="466.047091" style="fill: #0000ff; stroke: #0000ff"/>
     <use xlink:href="#m3606996d73" x="146.166112" y="468.7481" style="fill: #0000ff; stroke: #0000ff"/>
     <use xlink:href="#m3606996d73" x="146.828775" y="471.448088" style="fill: #0000ff; stroke: #0000ff"/>
     <use xlink:href="#m3606996d73" x="147.495557" y="474.147062" style="fill: #0000ff; stroke: #0000ff"/>
     <use xlink:href="#m3606996d73" x="148.166408" y="476.845027" style="fill: #0000ff; stroke: #0000ff"/>
     <use xlink:href="#m3606996d73" x="148.84128" y="479.541989" style="fill: #0000ff; stroke: #0000ff"/>
     <use xlink:href="#m3606996d73" x="149.520127" y="482.237954" style="fill: #0000ff; stroke: #0000ff"/>
     <use xlink:href="#m3606996d73" x="150.202904" y="484.932925" style="fill: #0000ff; stroke: #0000ff"/>
     <use xlink:href="#m3606996d73" x="150.889565" y="487.62691" style="fill: #0000ff; stroke: #0000ff"/>
     <use xlink:href="#m3606996d73" x="151.580066" y="490.319913" style="fill: #0000ff; stroke: #0000ff"/>
     <use xlink:href="#m3606996d73" x="152.274362" y="493.011941" style="fill: #0000ff; stroke: #0000ff"/>
     <use xlink:href="#m3606996d73" x="152.972408" y="495.702998" style="fill: #0000ff; stroke: #0000ff"/>
     <use xlink:href="#m3606996d73" x="153.67416" y="498.393091" style="fill: #0000ff; stroke: #0000ff"/>
     <use xlink:href="#m3606996d73" x="154.379573" y="501.082227" style="fill: #0000ff; stroke: #0000ff"/>
     <use xlink:href="#m3606996d73" x="155.088604" y="503.770411" style="fill: #0000ff; stroke: #0000ff"/>
     <use xlink:href="#m3606996d73" x="155.801209" y="506.457649" style="fill: #0000ff; stroke: #0000ff"/>
     <use xlink:href="#m3606996d73" x="156.517345" y="509.143949" style="fill: #0000ff; stroke: #0000ff"/>
     <use xlink:href="#m3606996d73" x="157.236968" y="511.829317" style="fill: #0000ff; stroke: #0000ff"/>
     <use xlink:href="#m3606996d73" x="157.960036" y="514.513759" style="fill: #0000ff; stroke: #0000ff"/>
     <use xlink:href="#m3606996d73" x="158.686506" y="517.197283" style="fill: #0000ff; stroke: #0000ff"/>
     <use xlink:href="#m3606996d73" x="159.416336" y="519.879895" style="fill: #0000ff; stroke: #0000ff"/>
     <use xlink:href="#m3606996d73" x="160.149484" y="522.561602" style="fill: #0000ff; stroke: #0000ff"/>
     <use xlink:href="#m3606996d73" x="160.885907" y="525.242411" style="fill: #0000ff; stroke: #0000ff"/>
     <use xlink:href="#m3606996d73" x="161.625565" y="527.92233" style="fill: #0000ff; stroke: #0000ff"/>
     <use xlink:href="#m3606996d73" x="162.368416" y="530.601365" style="fill: #0000ff; stroke: #0000ff"/>
     <use xlink:href="#m3606996d73" x="163.114418" y="533.279524" style="fill: #0000ff; stroke: #0000ff"/>
     <use xlink:href="#m3606996d73" x="163.863532" y="535.956815" style="fill: #0000ff; stroke: #0000ff"/>
     <use xlink:href="#m3606996d73" x="164.615717" y="538.633245" style="fill: #0000ff; stroke: #0000ff"/>
     <use xlink:href="#m3606996d73" x="165.370933" y="541.308821" style="fill: #0000ff; stroke: #0000ff"/>
     <use xlink:href="#m3606996d73" x="166.12914" y="543.983551" style="fill: #0000ff; stroke: #0000ff"/>
     <use xlink:href="#m3606996d73" x="166.890297" y="546.657442" style="fill: #0000ff; stroke: #0000ff"/>
    </g>
   </g>
   <g id="patch_3">
    <path d="M 36.286012 556.321635 
L 36.286012 6.799459 
" style="fill: none; stroke: #000000; stroke-width: 0.8; stroke-linejoin: miter; stroke-linecap: square"/>
   </g>
   <g id="patch_4">
    <path d="M 256.094882 556.321635 
L 256.094882 6.799459 
" style="fill: none; stroke: #000000; stroke-width: 0.8; stroke-linejoin: miter; stroke-linecap: square"/>
   </g>
   <g id="patch_5">
    <path d="M 36.286012 556.321635 
L 256.094882 556.321635 
" style="fill: none; stroke: #000000; stroke-width: 0.8; stroke-linejoin: miter; stroke-linecap: square"/>
   </g>
   <g id="patch_6">
    <path d="M 36.286012 6.799459 
L 256.094882 6.799459 
" style="fill: none; stroke: #000000; stroke-width: 0.8; stroke-linejoin: miter; stroke-linecap: square"/>
   </g>
  </g>
 </g>
 <defs>
  <clipPath id="p6ed5c3b318">
   <rect x="36.286012" y="6.799459" width="219.80887" height="549.522176"/>
  </clipPath>
 </defs>
</svg>
