<?xml version="1.0" encoding="utf-8" standalone="no"?>
<!DOCTYPE svg PUBLIC "-//W3C//DTD SVG 1.1//EN"
  "http://www.w3.org/Graphics/SVG/1.1/DTD/svg11.dtd">
<svg xmlns:xlink="http://www.w3.org/1999/xlink" width="288pt" height="216pt" viewBox="0 0 288 216" xmlns="http://www.w3.org/2000/svg" version="1.1">
 <metadata>
  <rdf:RDF xmlns:dc="http://purl.org/dc/elements/1.1/" xmlns:cc="http://creativecommons.org/ns#" xmlns:rdf="http://www.w3.org/1999/02/22-rdf-syntax-ns#">
   <cc:Work>
    <dc:type rdf:resource="http://purl.org/dc/dcmitype/StillImage"/>
    <dc:date>2023-01-12T01:00:05.121829</dc:date>
    <dc:format>image/svg+xml</dc:format>
    <dc:creator>
     <cc:Agent>
      <dc:title>Matplotlib v3.5.2, https://matplotlib.org/</dc:title>
     </cc:Agent>
    </dc:creator>
   </cc:Work>
  </rdf:RDF>
 </metadata>
 <defs>
  <style type="text/css">*{stroke-linejoin: round; stroke-linecap: butt}</style>
 </defs>
 <g id="figure_1">
  <g id="patch_1">
   <path d="M 0 216 
L 288 216 
L 288 0 
L 0 0 
z
" style="fill: #ffffff"/>
  </g>
  <g id="axes_1">
   <g id="patch_2">
    <path d="M 34.283052 192.115257 
L 277.048198 192.115257 
L 277.048198 18.711582 
L 34.283052 18.711582 
z
" style="fill: #ffffff"/>
   </g>
   <g id="matplotlib.axis_1">
    <g id="xtick_1">
     <g id="line2d_1">
      <defs>
       <path id="m6234214f6b" d="M 0 0 
L 0 3.5 
" style="stroke: #000000; stroke-width: 0.8"/>
      </defs>
      <g>
       <use xlink:href="#m6234214f6b" x="34.283052" y="192.115257" style="stroke: #000000; stroke-width: 0.8"/>
      </g>
     </g>
     <g id="text_1">
      <!-- 0.0 -->
      <g transform="translate(26.33149 206.713695)scale(0.1 -0.1)">
       <defs>
        <path id="DejaVuSans-30" d="M 2034 4250 
Q 1547 4250 1301 3770 
Q 1056 3291 1056 2328 
Q 1056 1369 1301 889 
Q 1547 409 2034 409 
Q 2525 409 2770 889 
Q 3016 1369 3016 2328 
Q 3016 3291 2770 3770 
Q 2525 4250 2034 4250 
z
M 2034 4750 
Q 2819 4750 3233 4129 
Q 3647 3509 3647 2328 
Q 3647 1150 3233 529 
Q 2819 -91 2034 -91 
Q 1250 -91 836 529 
Q 422 1150 422 2328 
Q 422 3509 836 4129 
Q 1250 4750 2034 4750 
z
" transform="scale(0.015625)"/>
        <path id="DejaVuSans-2e" d="M 684 794 
L 1344 794 
L 1344 0 
L 684 0 
L 684 794 
z
" transform="scale(0.015625)"/>
       </defs>
       <use xlink:href="#DejaVuSans-30"/>
       <use xlink:href="#DejaVuSans-2e" x="63.623047"/>
       <use xlink:href="#DejaVuSans-30" x="95.410156"/>
      </g>
     </g>
    </g>
    <g id="xtick_2">
     <g id="line2d_2">
      <g>
       <use xlink:href="#m6234214f6b" x="68.963787" y="192.115257" style="stroke: #000000; stroke-width: 0.8"/>
      </g>
     </g>
     <g id="text_2">
      <!-- 0.2 -->
      <g transform="translate(61.012225 206.713695)scale(0.1 -0.1)">
       <defs>
        <path id="DejaVuSans-32" d="M 1228 531 
L 3431 531 
L 3431 0 
L 469 0 
L 469 531 
Q 828 903 1448 1529 
Q 2069 2156 2228 2338 
Q 2531 2678 2651 2914 
Q 2772 3150 2772 3378 
Q 2772 3750 2511 3984 
Q 2250 4219 1831 4219 
Q 1534 4219 1204 4116 
Q 875 4013 500 3803 
L 500 4441 
Q 881 4594 1212 4672 
Q 1544 4750 1819 4750 
Q 2544 4750 2975 4387 
Q 3406 4025 3406 3419 
Q 3406 3131 3298 2873 
Q 3191 2616 2906 2266 
Q 2828 2175 2409 1742 
Q 1991 1309 1228 531 
z
" transform="scale(0.015625)"/>
       </defs>
       <use xlink:href="#DejaVuSans-30"/>
       <use xlink:href="#DejaVuSans-2e" x="63.623047"/>
       <use xlink:href="#DejaVuSans-32" x="95.410156"/>
      </g>
     </g>
    </g>
    <g id="xtick_3">
     <g id="line2d_3">
      <g>
       <use xlink:href="#m6234214f6b" x="103.644523" y="192.115257" style="stroke: #000000; stroke-width: 0.8"/>
      </g>
     </g>
     <g id="text_3">
      <!-- 0.4 -->
      <g transform="translate(95.69296 206.713695)scale(0.1 -0.1)">
       <defs>
        <path id="DejaVuSans-34" d="M 2419 4116 
L 825 1625 
L 2419 1625 
L 2419 4116 
z
M 2253 4666 
L 3047 4666 
L 3047 1625 
L 3713 1625 
L 3713 1100 
L 3047 1100 
L 3047 0 
L 2419 0 
L 2419 1100 
L 313 1100 
L 313 1709 
L 2253 4666 
z
" transform="scale(0.015625)"/>
       </defs>
       <use xlink:href="#DejaVuSans-30"/>
       <use xlink:href="#DejaVuSans-2e" x="63.623047"/>
       <use xlink:href="#DejaVuSans-34" x="95.410156"/>
      </g>
     </g>
    </g>
    <g id="xtick_4">
     <g id="line2d_4">
      <g>
       <use xlink:href="#m6234214f6b" x="138.325258" y="192.115257" style="stroke: #000000; stroke-width: 0.8"/>
      </g>
     </g>
     <g id="text_4">
      <!-- 0.6 -->
      <g transform="translate(130.373695 206.713695)scale(0.1 -0.1)">
       <defs>
        <path id="DejaVuSans-36" d="M 2113 2584 
Q 1688 2584 1439 2293 
Q 1191 2003 1191 1497 
Q 1191 994 1439 701 
Q 1688 409 2113 409 
Q 2538 409 2786 701 
Q 3034 994 3034 1497 
Q 3034 2003 2786 2293 
Q 2538 2584 2113 2584 
z
M 3366 4563 
L 3366 3988 
Q 3128 4100 2886 4159 
Q 2644 4219 2406 4219 
Q 1781 4219 1451 3797 
Q 1122 3375 1075 2522 
Q 1259 2794 1537 2939 
Q 1816 3084 2150 3084 
Q 2853 3084 3261 2657 
Q 3669 2231 3669 1497 
Q 3669 778 3244 343 
Q 2819 -91 2113 -91 
Q 1303 -91 875 529 
Q 447 1150 447 2328 
Q 447 3434 972 4092 
Q 1497 4750 2381 4750 
Q 2619 4750 2861 4703 
Q 3103 4656 3366 4563 
z
" transform="scale(0.015625)"/>
       </defs>
       <use xlink:href="#DejaVuSans-30"/>
       <use xlink:href="#DejaVuSans-2e" x="63.623047"/>
       <use xlink:href="#DejaVuSans-36" x="95.410156"/>
      </g>
     </g>
    </g>
    <g id="xtick_5">
     <g id="line2d_5">
      <g>
       <use xlink:href="#m6234214f6b" x="173.005993" y="192.115257" style="stroke: #000000; stroke-width: 0.8"/>
      </g>
     </g>
     <g id="text_5">
      <!-- 0.8 -->
      <g transform="translate(165.05443 206.713695)scale(0.1 -0.1)">
       <defs>
        <path id="DejaVuSans-38" d="M 2034 2216 
Q 1584 2216 1326 1975 
Q 1069 1734 1069 1313 
Q 1069 891 1326 650 
Q 1584 409 2034 409 
Q 2484 409 2743 651 
Q 3003 894 3003 1313 
Q 3003 1734 2745 1975 
Q 2488 2216 2034 2216 
z
M 1403 2484 
Q 997 2584 770 2862 
Q 544 3141 544 3541 
Q 544 4100 942 4425 
Q 1341 4750 2034 4750 
Q 2731 4750 3128 4425 
Q 3525 4100 3525 3541 
Q 3525 3141 3298 2862 
Q 3072 2584 2669 2484 
Q 3125 2378 3379 2068 
Q 3634 1759 3634 1313 
Q 3634 634 3220 271 
Q 2806 -91 2034 -91 
Q 1263 -91 848 271 
Q 434 634 434 1313 
Q 434 1759 690 2068 
Q 947 2378 1403 2484 
z
M 1172 3481 
Q 1172 3119 1398 2916 
Q 1625 2713 2034 2713 
Q 2441 2713 2670 2916 
Q 2900 3119 2900 3481 
Q 2900 3844 2670 4047 
Q 2441 4250 2034 4250 
Q 1625 4250 1398 4047 
Q 1172 3844 1172 3481 
z
" transform="scale(0.015625)"/>
       </defs>
       <use xlink:href="#DejaVuSans-30"/>
       <use xlink:href="#DejaVuSans-2e" x="63.623047"/>
       <use xlink:href="#DejaVuSans-38" x="95.410156"/>
      </g>
     </g>
    </g>
    <g id="xtick_6">
     <g id="line2d_6">
      <g>
       <use xlink:href="#m6234214f6b" x="207.686728" y="192.115257" style="stroke: #000000; stroke-width: 0.8"/>
      </g>
     </g>
     <g id="text_6">
      <!-- 1.0 -->
      <g transform="translate(199.735165 206.713695)scale(0.1 -0.1)">
       <defs>
        <path id="DejaVuSans-31" d="M 794 531 
L 1825 531 
L 1825 4091 
L 703 3866 
L 703 4441 
L 1819 4666 
L 2450 4666 
L 2450 531 
L 3481 531 
L 3481 0 
L 794 0 
L 794 531 
z
" transform="scale(0.015625)"/>
       </defs>
       <use xlink:href="#DejaVuSans-31"/>
       <use xlink:href="#DejaVuSans-2e" x="63.623047"/>
       <use xlink:href="#DejaVuSans-30" x="95.410156"/>
      </g>
     </g>
    </g>
    <g id="xtick_7">
     <g id="line2d_7">
      <g>
       <use xlink:href="#m6234214f6b" x="242.367463" y="192.115257" style="stroke: #000000; stroke-width: 0.8"/>
      </g>
     </g>
     <g id="text_7">
      <!-- 1.2 -->
      <g transform="translate(234.4159 206.713695)scale(0.1 -0.1)">
       <use xlink:href="#DejaVuSans-31"/>
       <use xlink:href="#DejaVuSans-2e" x="63.623047"/>
       <use xlink:href="#DejaVuSans-32" x="95.410156"/>
      </g>
     </g>
    </g>
    <g id="xtick_8">
     <g id="line2d_8">
      <g>
       <use xlink:href="#m6234214f6b" x="277.048198" y="192.115257" style="stroke: #000000; stroke-width: 0.8"/>
      </g>
     </g>
     <g id="text_8">
      <!-- 1.4 -->
      <g transform="translate(269.096635 206.713695)scale(0.1 -0.1)">
       <use xlink:href="#DejaVuSans-31"/>
       <use xlink:href="#DejaVuSans-2e" x="63.623047"/>
       <use xlink:href="#DejaVuSans-34" x="95.410156"/>
      </g>
     </g>
    </g>
   </g>
   <g id="matplotlib.axis_2">
    <g id="ytick_1">
     <g id="line2d_9">
      <defs>
       <path id="m780af09db0" d="M 0 0 
L -3.5 0 
" style="stroke: #000000; stroke-width: 0.8"/>
      </defs>
      <g>
       <use xlink:href="#m780af09db0" x="34.283052" y="192.115257" style="stroke: #000000; stroke-width: 0.8"/>
      </g>
     </g>
     <g id="text_9">
      <!-- −2.0 -->
      <g transform="translate(3.00024 195.914476)scale(0.1 -0.1)">
       <defs>
        <path id="DejaVuSans-2212" d="M 678 2272 
L 4684 2272 
L 4684 1741 
L 678 1741 
L 678 2272 
z
" transform="scale(0.015625)"/>
       </defs>
       <use xlink:href="#DejaVuSans-2212"/>
       <use xlink:href="#DejaVuSans-32" x="83.789062"/>
       <use xlink:href="#DejaVuSans-2e" x="147.412109"/>
       <use xlink:href="#DejaVuSans-30" x="179.199219"/>
      </g>
     </g>
    </g>
    <g id="ytick_2">
     <g id="line2d_10">
      <g>
       <use xlink:href="#m780af09db0" x="34.283052" y="157.434522" style="stroke: #000000; stroke-width: 0.8"/>
      </g>
     </g>
     <g id="text_10">
      <!-- −1.8 -->
      <g transform="translate(3.00024 161.233741)scale(0.1 -0.1)">
       <use xlink:href="#DejaVuSans-2212"/>
       <use xlink:href="#DejaVuSans-31" x="83.789062"/>
       <use xlink:href="#DejaVuSans-2e" x="147.412109"/>
       <use xlink:href="#DejaVuSans-38" x="179.199219"/>
      </g>
     </g>
    </g>
    <g id="ytick_3">
     <g id="line2d_11">
      <g>
       <use xlink:href="#m780af09db0" x="34.283052" y="122.753787" style="stroke: #000000; stroke-width: 0.8"/>
      </g>
     </g>
     <g id="text_11">
      <!-- −1.6 -->
      <g transform="translate(3.00024 126.553006)scale(0.1 -0.1)">
       <use xlink:href="#DejaVuSans-2212"/>
       <use xlink:href="#DejaVuSans-31" x="83.789062"/>
       <use xlink:href="#DejaVuSans-2e" x="147.412109"/>
       <use xlink:href="#DejaVuSans-36" x="179.199219"/>
      </g>
     </g>
    </g>
    <g id="ytick_4">
     <g id="line2d_12">
      <g>
       <use xlink:href="#m780af09db0" x="34.283052" y="88.073052" style="stroke: #000000; stroke-width: 0.8"/>
      </g>
     </g>
     <g id="text_12">
      <!-- −1.4 -->
      <g transform="translate(3.00024 91.872271)scale(0.1 -0.1)">
       <use xlink:href="#DejaVuSans-2212"/>
       <use xlink:href="#DejaVuSans-31" x="83.789062"/>
       <use xlink:href="#DejaVuSans-2e" x="147.412109"/>
       <use xlink:href="#DejaVuSans-34" x="179.199219"/>
      </g>
     </g>
    </g>
    <g id="ytick_5">
     <g id="line2d_13">
      <g>
       <use xlink:href="#m780af09db0" x="34.283052" y="53.392317" style="stroke: #000000; stroke-width: 0.8"/>
      </g>
     </g>
     <g id="text_13">
      <!-- −1.2 -->
      <g transform="translate(3.00024 57.191536)scale(0.1 -0.1)">
       <use xlink:href="#DejaVuSans-2212"/>
       <use xlink:href="#DejaVuSans-31" x="83.789062"/>
       <use xlink:href="#DejaVuSans-2e" x="147.412109"/>
       <use xlink:href="#DejaVuSans-32" x="179.199219"/>
      </g>
     </g>
    </g>
    <g id="ytick_6">
     <g id="line2d_14">
      <g>
       <use xlink:href="#m780af09db0" x="34.283052" y="18.711582" style="stroke: #000000; stroke-width: 0.8"/>
      </g>
     </g>
     <g id="text_14">
      <!-- −1.0 -->
      <g transform="translate(3.00024 22.510801)scale(0.1 -0.1)">
       <use xlink:href="#DejaVuSans-2212"/>
       <use xlink:href="#DejaVuSans-31" x="83.789062"/>
       <use xlink:href="#DejaVuSans-2e" x="147.412109"/>
       <use xlink:href="#DejaVuSans-30" x="179.199219"/>
      </g>
     </g>
    </g>
   </g>
   <g id="PathCollection_1"/>
   <g id="PathCollection_2">
    <path d="M 106.36798 213.790717 
L 106.863 213.534087 
L 109.82575 212.138795 
L 112.788501 210.905547 
L 115.751252 209.832087 
L 118.714002 208.916935 
L 121.676753 208.159451 
L 124.639504 207.559888 
L 127.602254 207.119468 
L 130.565005 206.840464 
L 133.527756 206.726282 
L 136.490506 206.781584 
L 139.453257 207.012427 
L 142.416008 207.426415 
L 145.378759 208.03292 
L 148.341509 208.843331 
L 151.30426 209.871355 
L 154.267011 211.133418 
L 157.229761 212.649141 
L 159.123681 213.790717 
" clip-path="url(#p5355b42910)" style="fill: none; stroke: #808080; stroke-width: 1.5"/>
    <path clip-path="url(#p5355b42910)" style="fill: none; stroke: #808080; stroke-width: 1.5"/>
   </g>
   <g id="PathCollection_3">
    <path d="M 72.533334 213.790717 
L 74.272742 212.216485 
L 77.235493 209.646562 
L 80.198244 207.226926 
L 81.327313 206.34662 
L 83.160994 204.748818 
L 86.123745 202.317243 
L 89.086496 200.062255 
L 90.715949 198.902523 
L 92.049246 197.837847 
L 95.011997 195.633019 
L 97.974748 193.61925 
L 100.937498 191.789409 
L 101.520551 191.458425 
L 103.900249 189.933575 
L 106.863 188.228226 
L 109.82575 186.717991 
L 112.788501 185.397424 
L 115.751252 184.262421 
L 116.515195 184.014328 
L 118.714002 183.198523 
L 121.676753 182.305763 
L 124.639504 181.623213 
L 127.602254 181.152509 
L 130.565005 180.897434 
L 133.527756 180.864085 
L 136.490506 181.061134 
L 139.453257 181.500148 
L 142.416008 182.196 
L 145.378759 183.167441 
L 147.359232 184.014328 
L 148.341509 184.377043 
L 151.30426 185.742331 
L 154.267011 187.410888 
L 157.229761 189.416077 
L 159.775545 191.458425 
L 160.192512 191.75002 
L 163.155263 194.150468 
L 166.118013 196.951898 
L 167.907537 198.902523 
L 169.080764 200.025238 
L 172.043515 203.25961 
L 174.503936 206.34662 
L 175.006265 206.903639 
L 177.969016 210.602369 
L 180.206843 213.790717 
" clip-path="url(#p5355b42910)" style="fill: none; stroke: #808080; stroke-width: 1.5"/>
    <path clip-path="url(#p5355b42910)" style="fill: none; stroke: #808080; stroke-width: 1.5"/>
    <path d="M 0 0 
" clip-path="url(#p5355b42910)" style="fill: none; stroke: #808080; stroke-width: 1.5"/>
   </g>
   <g id="PathCollection_4">
    <path d="M 35.756984 207.273006 
L 39.059113 206.34662 
L 41.682485 205.020124 
L 44.645236 203.10717 
L 47.607986 200.925846 
L 50.570737 198.512915 
L 57.724958 191.458425 
L 62.42174 186.136155 
L 64.368423 184.014328 
L 68.347241 179.131464 
L 71.309992 175.597479 
L 74.272742 171.835801 
L 77.235493 168.220299 
L 80.198244 164.391714 
L 83.160994 160.746449 
L 86.123745 156.911775 
L 89.086496 153.284062 
L 92.049246 149.480245 
L 95.011997 145.914091 
L 97.974748 142.156662 
L 100.937498 138.695056 
L 103.900249 134.980042 
L 106.863 131.671372 
L 109.82575 127.974636 
L 113.121492 124.461551 
L 115.751252 121.154204 
L 118.714002 117.980042 
L 119.784092 117.017454 
L 121.676753 114.527392 
L 124.639504 111.308743 
L 126.663197 109.573357 
L 127.602254 108.116264 
L 130.565005 104.616474 
L 133.72258 102.129259 
L 135.882922 94.685162 
L 133.527756 91.754849 
L 131.944698 87.241065 
L 130.565005 85.212091 
L 128.087132 79.796968 
L 127.602254 79.037079 
L 115.751252 55.338114 
L 103.900249 30.589031 
L 99.204308 20.244191 
L 95.011997 10.533892 
L 92.049246 3.354427 
L 90.30637 -1 
L 90.30637 -1 
" clip-path="url(#p5355b42910)" style="fill: none; stroke: #808080; stroke-width: 1.5"/>
    <path d="M 238.437364 -1 
L 232.865203 5.355996 
L 226.02106 12.800094 
L 222.410276 16.577394 
L 216.484775 22.635923 
L 207.596523 31.40823 
L 198.708271 39.921192 
L 183.894517 53.788737 
L 163.891239 72.352871 
L 163.155263 73.13382 
L 157.229761 78.78495 
L 156.01172 79.796968 
L 154.267011 81.708451 
L 151.30426 84.646221 
L 148.341509 87.3303 
L 145.378759 90.740358 
L 142.416008 93.597144 
L 140.489569 94.685162 
L 139.453257 102.182256 
L 142.416008 107.169303 
L 143.063696 109.573357 
L 145.378759 113.26205 
L 146.832175 117.017454 
L 148.341509 119.369006 
L 150.621968 124.461551 
L 151.30426 125.510019 
L 154.387867 131.905648 
L 157.229761 137.352847 
L 158.056425 139.349745 
L 160.192512 143.302176 
L 161.726087 146.793842 
L 163.155263 149.374079 
L 165.384408 154.23794 
L 166.118013 155.539603 
L 172.583812 169.126134 
L 175.006265 173.983288 
L 176.117714 176.570231 
L 177.969016 180.235241 
L 179.625189 184.014328 
L 180.931767 186.578656 
L 183.894517 193.005361 
L 193.289413 213.790717 
L 193.289413 213.790717 
" clip-path="url(#p5355b42910)" style="fill: none; stroke: #808080; stroke-width: 1.5"/>
   </g>
   <g id="PathCollection_5">
    <path d="M 264.397609 -1 
L 260.188041 5.355996 
L 252.037783 17.103665 
L 243.149531 29.498025 
L 228.418785 50.020579 
L 219.447525 63.242492 
L 216.484775 67.882936 
L 213.522024 72.721563 
L 209.428419 79.796968 
L 205.528288 87.241065 
L 201.671021 95.649052 
L 198.708271 103.147733 
L 196.526706 109.573357 
L 194.492547 117.017454 
L 192.782769 125.799682 
L 191.909435 131.905648 
L 191.31691 139.349745 
L 191.164784 146.793842 
L 191.41492 154.23794 
L 192.036309 161.682037 
L 192.990023 169.126134 
L 194.202846 176.570231 
L 195.74552 184.175556 
L 197.379732 191.458425 
L 201.671021 207.501235 
L 203.456038 213.790717 
L 203.456038 213.790717 
" clip-path="url(#p5355b42910)" style="fill: none; stroke: #808080; stroke-width: 1.5"/>
   </g>
   <g id="PathCollection_6">
    <path d="M 281.696514 -1 
L 277.992181 5.355996 
L 269.814287 18.682149 
L 263.888785 27.98292 
L 246.112281 55.415718 
L 240.18678 64.952111 
L 234.261279 74.962924 
L 231.298528 80.263737 
L 227.584883 87.241065 
L 223.919889 94.685162 
L 220.585558 102.129259 
L 217.598117 109.573357 
L 214.973383 117.017454 
L 212.728399 124.461551 
L 210.559273 133.404692 
L 209.361258 139.349745 
L 208.244669 146.793842 
L 207.493448 154.23794 
L 207.067285 161.682037 
L 206.974865 169.126134 
L 207.192849 176.570231 
L 207.695934 184.014328 
L 208.437797 191.458425 
L 209.424387 198.902523 
L 210.63948 206.34662 
L 212.008959 213.790717 
L 212.008959 213.790717 
" clip-path="url(#p5355b42910)" style="fill: none; stroke: #808080; stroke-width: 1.5"/>
   </g>
   <g id="PathCollection_7">
    <path d="M 289 10.417796 
L 287.672658 12.800094 
L 287.590791 12.943096 
L 284.62804 18.045828 
L 283.348076 20.244191 
L 281.665289 23.071539 
L 278.920873 27.688288 
L 278.702539 28.049038 
L 275.739788 32.89831 
L 274.378278 35.132385 
L 272.777037 37.727312 
L 269.814287 42.565792 
L 269.807677 42.576482 
L 266.851536 47.32636 
L 265.193029 50.020579 
L 263.888785 52.135315 
L 260.926035 56.986893 
L 260.633537 57.464676 
L 257.963284 61.848139 
L 256.128289 64.908774 
L 255.000533 66.809717 
L 252.037783 71.873646 
L 251.757998 72.352871 
L 249.075032 77.036639 
L 247.524221 79.796968 
L 246.112281 82.376767 
L 243.503929 87.241065 
L 243.149531 87.925026 
L 240.18678 93.71783 
L 239.699437 94.685162 
L 237.224029 99.837755 
L 236.146577 102.129259 
L 234.261279 106.384285 
L 232.878353 109.573357 
L 231.298528 113.495916 
L 229.909982 117.017454 
L 228.335777 121.395486 
L 227.255809 124.461551 
L 225.373027 130.465057 
L 224.930067 131.905648 
L 222.923825 139.349745 
L 222.410276 141.593053 
L 221.240982 146.793842 
L 219.897836 154.23794 
L 219.447525 157.453545 
L 218.864685 161.682037 
L 218.137266 169.126134 
L 217.713787 176.570231 
L 217.573871 184.014328 
L 217.699333 191.458425 
L 218.073975 198.902523 
L 218.683898 206.34662 
L 219.447525 213.152138 
L 219.512321 213.790717 
" clip-path="url(#p5355b42910)" style="fill: none; stroke: #808080; stroke-width: 1.5"/>
    <path clip-path="url(#p5355b42910)" style="fill: none; stroke: #808080; stroke-width: 1.5"/>
   </g>
   <g id="PathCollection_8">
    <path d="M 289 31.374304 
L 287.590791 33.795817 
L 286.810742 35.132385 
L 284.62804 38.806196 
L 282.401148 42.576482 
L 281.665289 43.805228 
L 278.702539 48.756308 
L 277.946851 50.020579 
L 275.739788 53.682899 
L 273.487307 57.464676 
L 272.777037 58.652748 
L 269.814287 63.634523 
L 269.060866 64.908774 
L 266.851536 68.655873 
L 264.707403 72.352871 
L 263.888785 73.775806 
L 260.926035 78.988928 
L 260.470148 79.796968 
L 257.963284 84.312395 
L 256.369388 87.241065 
L 255.000533 89.814086 
L 252.462966 94.685162 
L 252.037783 95.526407 
L 249.075032 101.486923 
L 248.760407 102.129259 
L 246.112281 107.770282 
L 245.284448 109.573357 
L 243.149531 114.477565 
L 242.068313 117.017454 
L 240.18678 121.739942 
L 239.126283 124.461551 
L 237.224029 129.762045 
L 236.47135 131.905648 
L 234.261279 138.881654 
L 234.116093 139.349745 
L 232.042011 146.793842 
L 231.298528 149.888485 
L 230.274219 154.23794 
L 228.812657 161.682037 
L 228.335777 164.667873 
L 227.636591 169.126134 
L 226.745618 176.570231 
L 226.139699 184.014328 
L 225.8003 191.458425 
L 225.710694 198.902523 
L 225.856261 206.34662 
L 226.222567 213.790717 
" clip-path="url(#p5355b42910)" style="fill: none; stroke: #808080; stroke-width: 1.5"/>
    <path clip-path="url(#p5355b42910)" style="fill: none; stroke: #808080; stroke-width: 1.5"/>
   </g>
   <g id="PathCollection_9">
    <path d="M 289 49.793463 
L 288.867753 50.020579 
L 287.590791 52.183199 
L 284.62804 57.244784 
L 284.498918 57.464676 
L 281.665289 62.249904 
L 280.111072 64.908774 
L 278.702539 67.308639 
L 275.78663 72.352871 
L 275.739788 72.433948 
L 272.777037 77.570562 
L 271.514368 79.796968 
L 269.814287 82.817168 
L 267.37131 87.241065 
L 266.851536 88.19469 
L 263.888785 93.70308 
L 263.36752 94.685162 
L 260.926035 99.38648 
L 259.532306 102.129259 
L 257.963284 105.308189 
L 255.905041 109.573357 
L 255.000533 111.519182 
L 252.502929 117.017454 
L 252.037783 118.090861 
L 249.340729 124.461551 
L 249.075032 125.127078 
L 246.43119 131.905648 
L 246.112281 132.784983 
L 243.785746 139.349745 
L 243.149531 141.314802 
L 241.415274 146.793842 
L 240.18678 151.141021 
L 239.330586 154.23794 
L 237.531157 161.682037 
L 237.224029 163.14738 
L 235.996595 169.126134 
L 234.752463 176.570231 
L 234.261279 180.265527 
L 233.772394 184.014328 
L 233.048114 191.458425 
L 232.581738 198.902523 
L 232.357824 206.34662 
L 232.361197 213.790717 
" clip-path="url(#p5355b42910)" style="fill: none; stroke: #808080; stroke-width: 1.5"/>
    <path clip-path="url(#p5355b42910)" style="fill: none; stroke: #808080; stroke-width: 1.5"/>
   </g>
   <g id="PathCollection_10">
    <path d="M 289 66.383051 
L 287.590791 68.791457 
L 285.536264 72.352871 
L 284.62804 73.920139 
L 281.665289 79.092999 
L 281.26446 79.796968 
L 278.702539 84.304413 
L 277.063999 87.241065 
L 275.739788 89.630466 
L 272.994209 94.685162 
L 272.777037 95.089893 
L 269.814287 100.671896 
L 269.054922 102.129259 
L 266.851536 106.44656 
L 265.291344 109.573357 
L 263.888785 112.46339 
L 261.729608 117.017454 
L 260.926035 118.774127 
L 258.38564 124.461551 
L 257.963284 125.450776 
L 255.272936 131.905648 
L 255.000533 132.596973 
L 252.403148 139.349745 
L 252.037783 140.368057 
L 249.786746 146.793842 
L 249.075032 149.008414 
L 247.433444 154.23794 
L 246.112281 158.9254 
L 245.352917 161.682037 
L 243.540967 169.126134 
L 243.149531 170.967852 
L 241.984524 176.570231 
L 240.702462 184.014328 
L 240.18678 187.703437 
L 239.672472 191.458425 
L 238.886606 198.902523 
L 238.348288 206.34662 
L 238.041948 213.790717 
" clip-path="url(#p5355b42910)" style="fill: none; stroke: #808080; stroke-width: 1.5"/>
    <path clip-path="url(#p5355b42910)" style="fill: none; stroke: #808080; stroke-width: 1.5"/>
   </g>
   <g id="PathCollection_11">
    <path d="M 289 81.606673 
L 287.590791 84.064162 
L 285.80108 87.241065 
L 284.62804 89.325586 
L 281.670331 94.685162 
L 281.665289 94.694353 
L 278.702539 100.134209 
L 277.638694 102.129259 
L 275.739788 105.738534 
L 273.766991 109.573357 
L 272.777037 111.53559 
L 270.075439 117.017454 
L 269.814287 117.561494 
L 266.851536 123.856345 
L 266.572285 124.461551 
L 263.888785 130.499649 
L 263.279035 131.905648 
L 260.926035 137.592724 
L 260.216794 139.349745 
L 257.963284 145.268253 
L 257.396546 146.793842 
L 255.000533 153.726626 
L 254.82808 154.23794 
L 252.504606 161.682037 
L 252.037783 163.33109 
L 250.436001 169.126134 
L 249.075032 174.724805 
L 248.636697 176.570231 
L 247.082165 184.014328 
L 246.112281 189.575155 
L 245.790942 191.458425 
L 244.732293 198.902523 
L 243.924548 206.34662 
L 243.352004 213.790717 
" clip-path="url(#p5355b42910)" style="fill: none; stroke: #808080; stroke-width: 1.5"/>
    <path clip-path="url(#p5355b42910)" style="fill: none; stroke: #808080; stroke-width: 1.5"/>
   </g>
   <g id="PathCollection_12">
    <path d="M 289 95.758268 
L 287.590791 98.29225 
L 285.50078 102.129259 
L 284.62804 103.742797 
L 281.665289 109.334067 
L 281.53984 109.573357 
L 278.702539 115.065106 
L 277.717192 117.017454 
L 275.739788 121.017687 
L 274.078239 124.461551 
L 272.777037 127.234186 
L 270.63866 131.905648 
L 269.814287 133.771677 
L 267.411635 139.349745 
L 266.851536 140.709448 
L 264.408357 146.793842 
L 263.888785 148.161452 
L 261.638387 154.23794 
L 260.926035 156.297576 
L 259.110257 161.682037 
L 257.963284 165.383359 
L 256.83198 169.126134 
L 255.000533 175.858063 
L 254.811439 176.570231 
L 253.023976 184.014328 
L 252.037783 188.776444 
L 251.495182 191.458425 
L 250.202102 198.902523 
L 249.161919 206.34662 
L 249.075032 207.113569 
L 248.334789 213.790717 
" clip-path="url(#p5355b42910)" style="fill: none; stroke: #808080; stroke-width: 1.5"/>
    <path clip-path="url(#p5355b42910)" style="fill: none; stroke: #808080; stroke-width: 1.5"/>
   </g>
   <g id="PathCollection_13">
    <path d="M 289 109.063972 
L 288.725822 109.573357 
L 287.590791 111.6991 
L 284.816356 117.017454 
L 284.62804 117.383309 
L 281.665289 123.230482 
L 281.054866 124.461551 
L 278.702539 129.310915 
L 277.47509 131.905648 
L 275.739788 135.681666 
L 274.096784 139.349745 
L 272.777037 142.407012 
L 270.931927 146.793842 
L 269.814287 149.57675 
L 267.99056 154.23794 
L 266.851536 157.320504 
L 265.281353 161.682037 
L 263.888785 165.83295 
L 262.812094 169.126134 
L 260.926035 175.420253 
L 260.590064 176.570231 
L 258.602315 184.014328 
L 257.963284 186.698181 
L 256.857398 191.458425 
L 255.361565 198.902523 
L 255.000533 200.982796 
L 254.091254 206.34662 
L 253.055625 213.790717 
" clip-path="url(#p5355b42910)" style="fill: none; stroke: #808080; stroke-width: 1.5"/>
    <path clip-path="url(#p5355b42910)" style="fill: none; stroke: #808080; stroke-width: 1.5"/>
   </g>
   <g id="PathCollection_14">
    <path d="M 289 121.720178 
L 287.590791 124.456314 
L 287.588126 124.461551 
L 284.62804 130.378538 
L 283.883102 131.905648 
L 281.665289 136.558248 
L 280.368659 139.349745 
L 278.702539 143.046551 
L 277.057619 146.793842 
L 275.739788 149.913072 
L 273.960607 154.23794 
L 272.777037 157.255527 
L 271.086582 161.682037 
L 269.814287 165.215766 
L 268.443295 169.126134 
L 266.851536 174.007795 
L 266.037664 176.570231 
L 263.888785 183.970375 
L 263.876347 184.014328 
L 261.934985 191.458425 
L 260.926035 195.850895 
L 260.242392 198.902523 
L 258.780897 206.34662 
L 257.963284 211.265311 
L 257.553409 213.790717 
" clip-path="url(#p5355b42910)" style="fill: none; stroke: #808080; stroke-width: 1.5"/>
    <path clip-path="url(#p5355b42910)" style="fill: none; stroke: #808080; stroke-width: 1.5"/>
   </g>
   <g id="PathCollection_15">
    <path d="M 289 133.780992 
L 287.590791 136.638257 
L 286.287912 139.349745 
L 284.62804 142.888589 
L 282.844529 146.793842 
L 281.665289 149.458026 
L 279.606066 154.23794 
L 278.702539 156.419726 
L 276.581886 161.682037 
L 275.739788 163.876812 
L 273.779865 169.126134 
L 272.777037 171.979545 
L 271.20675 176.570231 
L 269.814287 180.955644 
L 268.868712 184.014328 
L 266.851536 191.16761 
L 266.771652 191.458425 
L 264.891734 198.902523 
L 263.888785 203.418327 
L 263.254745 206.34662 
L 261.84142 213.790717 
" clip-path="url(#p5355b42910)" style="fill: none; stroke: #808080; stroke-width: 1.5"/>
    <path clip-path="url(#p5355b42910)" style="fill: none; stroke: #808080; stroke-width: 1.5"/>
   </g>
   <g id="PathCollection_16">
    <path d="M 289 145.404064 
L 288.341444 146.793842 
L 287.590791 148.418274 
L 284.974268 154.23794 
L 284.62804 155.033339 
L 281.813109 161.682037 
L 281.665289 162.045669 
L 278.866095 169.126134 
L 278.702539 169.561216 
L 276.139958 176.570231 
L 275.739788 177.734741 
L 273.640581 184.014328 
L 272.777037 186.801974 
L 271.373289 191.458425 
L 269.814287 197.139722 
L 269.343288 198.902523 
L 267.536533 206.34662 
L 266.851536 209.527756 
L 265.95699 213.790717 
" clip-path="url(#p5355b42910)" style="fill: none; stroke: #808080; stroke-width: 1.5"/>
    <path clip-path="url(#p5355b42910)" style="fill: none; stroke: #808080; stroke-width: 1.5"/>
   </g>
   <g id="PathCollection_17">
    <path d="M 289 156.690436 
L 287.590791 159.852798 
L 286.798114 161.682037 
L 284.62804 166.878012 
L 283.715167 169.126134 
L 281.665289 174.411394 
L 280.851215 176.570231 
L 278.702539 182.599844 
L 278.212382 184.014328 
L 275.802344 191.458425 
L 275.739788 191.66504 
L 273.608281 198.902523 
L 272.777037 202.009631 
L 271.647776 206.34662 
L 269.92227 213.790717 
" clip-path="url(#p5355b42910)" style="fill: none; stroke: #808080; stroke-width: 1.5"/>
    <path clip-path="url(#p5355b42910)" style="fill: none; stroke: #808080; stroke-width: 1.5"/>
   </g>
   <g id="PathCollection_18">
    <path d="M 289 167.659346 
L 288.373659 169.126134 
L 287.590791 171.030225 
L 285.377532 176.570231 
L 284.62804 178.53652 
L 282.599089 184.014328 
L 281.665289 186.685325 
L 280.043407 191.458425 
L 278.702539 195.694092 
L 277.715001 198.902523 
L 275.739788 205.904527 
L 275.618472 206.34662 
L 273.731808 213.790717 
" clip-path="url(#p5355b42910)" style="fill: none; stroke: #808080; stroke-width: 1.5"/>
    <path clip-path="url(#p5355b42910)" style="fill: none; stroke: #808080; stroke-width: 1.5"/>
   </g>
   <g id="PathCollection_19">
    <path d="M 289 178.438575 
L 287.590791 182.021648 
L 286.829482 184.014328 
L 284.62804 190.088011 
L 284.145447 191.458425 
L 281.686684 198.902523 
L 281.665289 198.971434 
L 279.43999 206.34662 
L 278.702539 209.016845 
L 277.420527 213.790717 
" clip-path="url(#p5355b42910)" style="fill: none; stroke: #808080; stroke-width: 1.5"/>
    <path clip-path="url(#p5355b42910)" style="fill: none; stroke: #808080; stroke-width: 1.5"/>
   </g>
   <g id="PathCollection_20">
    <path d="M 289 189.082117 
L 288.10578 191.458425 
L 287.590791 192.902368 
L 285.512666 198.902523 
L 284.62804 201.630268 
L 283.142189 206.34662 
L 281.665289 211.426936 
L 280.997421 213.790717 
" clip-path="url(#p5355b42910)" style="fill: none; stroke: #808080; stroke-width: 1.5"/>
    <path clip-path="url(#p5355b42910)" style="fill: none; stroke: #808080; stroke-width: 1.5"/>
   </g>
   <g id="PathCollection_21">
    <path d="M 289 199.573562 
L 287.590791 203.743543 
L 286.736592 206.34662 
L 284.62804 213.259641 
L 284.47068 213.790717 
" clip-path="url(#p5355b42910)" style="fill: none; stroke: #808080; stroke-width: 1.5"/>
    <path clip-path="url(#p5355b42910)" style="fill: none; stroke: #808080; stroke-width: 1.5"/>
   </g>
   <g id="PathCollection_22">
    <path d="M 289 210.18171 
L 287.841725 213.790717 
" clip-path="url(#p5355b42910)" style="fill: none; stroke: #808080; stroke-width: 1.5"/>
    <path clip-path="url(#p5355b42910)" style="fill: none; stroke: #808080; stroke-width: 1.5"/>
   </g>
   <g id="PathCollection_23">
    <path clip-path="url(#p5355b42910)" style="fill: none; stroke: #808080; stroke-width: 1.5"/>
    <path clip-path="url(#p5355b42910)" style="fill: none; stroke: #808080; stroke-width: 1.5"/>
   </g>
   <g id="PathCollection_24">
    <path clip-path="url(#p5355b42910)" style="fill: none; stroke: #808080; stroke-width: 1.5"/>
    <path clip-path="url(#p5355b42910)" style="fill: none; stroke: #808080; stroke-width: 1.5"/>
   </g>
   <g id="PathCollection_25">
    <path clip-path="url(#p5355b42910)" style="fill: none; stroke: #808080; stroke-width: 1.5"/>
    <path clip-path="url(#p5355b42910)" style="fill: none; stroke: #808080; stroke-width: 1.5"/>
   </g>
   <g id="PathCollection_26">
    <path clip-path="url(#p5355b42910)" style="fill: none; stroke: #808080; stroke-width: 1.5"/>
    <path clip-path="url(#p5355b42910)" style="fill: none; stroke: #808080; stroke-width: 1.5"/>
   </g>
   <g id="PathCollection_27">
    <path clip-path="url(#p5355b42910)" style="fill: none; stroke: #808080; stroke-width: 1.5"/>
    <path clip-path="url(#p5355b42910)" style="fill: none; stroke: #808080; stroke-width: 1.5"/>
   </g>
   <g id="PathCollection_28">
    <path clip-path="url(#p5355b42910)" style="fill: none; stroke: #808080; stroke-width: 1.5"/>
    <path clip-path="url(#p5355b42910)" style="fill: none; stroke: #808080; stroke-width: 1.5"/>
   </g>
   <g id="PathCollection_29">
    <path clip-path="url(#p5355b42910)" style="fill: none; stroke: #808080; stroke-width: 1.5"/>
    <path clip-path="url(#p5355b42910)" style="fill: none; stroke: #808080; stroke-width: 1.5"/>
   </g>
   <g id="PathCollection_30">
    <path clip-path="url(#p5355b42910)" style="fill: none; stroke: #808080; stroke-width: 1.5"/>
    <path clip-path="url(#p5355b42910)" style="fill: none; stroke: #808080; stroke-width: 1.5"/>
   </g>
   <g id="PathCollection_31">
    <path clip-path="url(#p5355b42910)" style="fill: none; stroke: #808080; stroke-width: 1.5"/>
    <path clip-path="url(#p5355b42910)" style="fill: none; stroke: #808080; stroke-width: 1.5"/>
   </g>
   <g id="PathCollection_32">
    <path clip-path="url(#p5355b42910)" style="fill: none; stroke: #808080; stroke-width: 1.5"/>
    <path clip-path="url(#p5355b42910)" style="fill: none; stroke: #808080; stroke-width: 1.5"/>
   </g>
   <g id="PathCollection_33">
    <path clip-path="url(#p5355b42910)" style="fill: none; stroke: #808080; stroke-width: 1.5"/>
    <path clip-path="url(#p5355b42910)" style="fill: none; stroke: #808080; stroke-width: 1.5"/>
   </g>
   <g id="PathCollection_34">
    <path clip-path="url(#p5355b42910)" style="fill: none; stroke: #808080; stroke-width: 1.5"/>
    <path clip-path="url(#p5355b42910)" style="fill: none; stroke: #808080; stroke-width: 1.5"/>
   </g>
   <g id="PathCollection_35">
    <path clip-path="url(#p5355b42910)" style="fill: none; stroke: #808080; stroke-width: 1.5"/>
    <path clip-path="url(#p5355b42910)" style="fill: none; stroke: #808080; stroke-width: 1.5"/>
   </g>
   <g id="PathCollection_36">
    <path clip-path="url(#p5355b42910)" style="fill: none; stroke: #808080; stroke-width: 1.5"/>
    <path clip-path="url(#p5355b42910)" style="fill: none; stroke: #808080; stroke-width: 1.5"/>
   </g>
   <g id="PathCollection_37"/>
   <g id="line2d_15">
    <path d="M 51.62342 157.434522 
L 289 157.434522 
M 51.62342 -1 
L 51.62342 157.434522 
" clip-path="url(#p5355b42910)" style="fill: none; stroke: #000000; stroke-width: 2; stroke-linecap: square"/>
   </g>
   <g id="line2d_16">
    <defs>
     <path id="md483b99d6a" d="M -3 3 
L 3 -3 
M -3 -3 
L 3 3 
" style="stroke: #ff0000"/>
    </defs>
    <g clip-path="url(#p5355b42910)">
     <use xlink:href="#md483b99d6a" x="188.565816" y="109.373135" style="fill: #ff0000; stroke: #ff0000"/>
     <use xlink:href="#md483b99d6a" x="187.570992" y="113.288342" style="fill: #ff0000; stroke: #ff0000"/>
     <use xlink:href="#md483b99d6a" x="186.807571" y="116.821024" style="fill: #ff0000; stroke: #ff0000"/>
     <use xlink:href="#md483b99d6a" x="186.070907" y="120.974857" style="fill: #ff0000; stroke: #ff0000"/>
     <use xlink:href="#md483b99d6a" x="185.416608" y="125.912626" style="fill: #ff0000; stroke: #ff0000"/>
     <use xlink:href="#md483b99d6a" x="184.948602" y="131.644319" style="fill: #ff0000; stroke: #ff0000"/>
     <use xlink:href="#md483b99d6a" x="184.776672" y="138.089306" style="fill: #ff0000; stroke: #ff0000"/>
     <use xlink:href="#md483b99d6a" x="184.983944" y="145.088014" style="fill: #ff0000; stroke: #ff0000"/>
     <use xlink:href="#md483b99d6a" x="185.600134" y="152.429708" style="fill: #ff0000; stroke: #ff0000"/>
     <use xlink:href="#md483b99d6a" x="186.619765" y="160.038496" style="fill: #ff0000; stroke: #ff0000"/>
     <use xlink:href="#md483b99d6a" x="188.034864" y="167.947132" style="fill: #ff0000; stroke: #ff0000"/>
     <use xlink:href="#md483b99d6a" x="189.815764" y="176.106345" style="fill: #ff0000; stroke: #ff0000"/>
     <use xlink:href="#md483b99d6a" x="191.925637" y="184.484181" style="fill: #ff0000; stroke: #ff0000"/>
    </g>
   </g>
   <g id="patch_3">
    <path d="M 34.283052 192.115257 
L 34.283052 18.711582 
" style="fill: none; stroke: #000000; stroke-width: 0.8; stroke-linejoin: miter; stroke-linecap: square"/>
   </g>
   <g id="patch_4">
    <path d="M 277.048198 192.115257 
L 277.048198 18.711582 
" style="fill: none; stroke: #000000; stroke-width: 0.8; stroke-linejoin: miter; stroke-linecap: square"/>
   </g>
   <g id="patch_5">
    <path d="M 34.283052 192.115257 
L 277.048198 192.115257 
" style="fill: none; stroke: #000000; stroke-width: 0.8; stroke-linejoin: miter; stroke-linecap: square"/>
   </g>
   <g id="patch_6">
    <path d="M 34.283052 18.711582 
L 277.048198 18.711582 
" style="fill: none; stroke: #000000; stroke-width: 0.8; stroke-linejoin: miter; stroke-linecap: square"/>
   </g>
  </g>
 </g>
 <defs>
  <clipPath id="p5355b42910">
   <rect x="34.283052" y="18.711582" width="242.765145" height="173.403675"/>
  </clipPath>
 </defs>
</svg>
