<?xml version="1.0" encoding="UTF-8" standalone="no"?>
<!-- Created with Inkscape (http://www.inkscape.org/) -->

<svg
   xmlns:dc="http://purl.org/dc/elements/1.1/"
   xmlns:cc="http://creativecommons.org/ns#"
   xmlns:rdf="http://www.w3.org/1999/02/22-rdf-syntax-ns#"
   xmlns:svg="http://www.w3.org/2000/svg"
   xmlns="http://www.w3.org/2000/svg"
   xmlns:sodipodi="http://sodipodi.sourceforge.net/DTD/sodipodi-0.dtd"
   xmlns:inkscape="http://www.inkscape.org/namespaces/inkscape"
   width="210mm"
   height="80mm"
   viewBox="0 0 210 80"
   version="1.1"
   id="svg8"
   inkscape:version="0.92.5 (2060ec1f9f, 2020-04-08)"
   sodipodi:docname="sketch-nonorthogonal-range.svg"
   inkscape:export-filename="/home/jomotani/Dropbox/Documents/BOUT++/hypnotoad/sketch-nonorthogonal-range.png"
   inkscape:export-xdpi="96"
   inkscape:export-ydpi="96">
  <defs
     id="defs2">
    <marker
       inkscape:stockid="Arrow1Mend"
       orient="auto"
       refY="0"
       refX="0"
       id="Arrow1Mend"
       style="overflow:visible"
       inkscape:isstock="true">
      <path
         id="path908"
         d="M 0,0 5,-5 -12.5,0 5,5 Z"
         style="fill:#ff00ff;fill-opacity:1;fill-rule:evenodd;stroke:#ff00ff;stroke-width:1.00000003pt;stroke-opacity:1"
         transform="matrix(-0.4,0,0,-0.4,-4,0)"
         inkscape:connector-curvature="0" />
    </marker>
    <marker
       inkscape:stockid="Arrow1Mstart"
       orient="auto"
       refY="0"
       refX="0"
       id="Arrow1Mstart"
       style="overflow:visible"
       inkscape:isstock="true">
      <path
         id="path905"
         d="M 0,0 5,-5 -12.5,0 5,5 Z"
         style="fill:#ff00ff;fill-opacity:1;fill-rule:evenodd;stroke:#ff00ff;stroke-width:1.00000003pt;stroke-opacity:1"
         transform="matrix(0.4,0,0,0.4,4,0)"
         inkscape:connector-curvature="0" />
    </marker>
    <marker
       inkscape:stockid="Arrow1Lstart"
       orient="auto"
       refY="0"
       refX="0"
       id="Arrow1Lstart"
       style="overflow:visible"
       inkscape:isstock="true">
      <path
         id="path899"
         d="M 0,0 5,-5 -12.5,0 5,5 Z"
         style="fill:#000000;fill-opacity:1;fill-rule:evenodd;stroke:#000000;stroke-width:1.00000003pt;stroke-opacity:1"
         transform="matrix(0.8,0,0,0.8,10,0)"
         inkscape:connector-curvature="0" />
    </marker>
    <marker
       inkscape:stockid="Arrow1Mstart"
       orient="auto"
       refY="0"
       refX="0"
       id="Arrow1Mstart-3"
       style="overflow:visible"
       inkscape:isstock="true">
      <path
         inkscape:connector-curvature="0"
         id="path905-3"
         d="M 0,0 5,-5 -12.5,0 5,5 Z"
         style="fill:#ff00ff;fill-opacity:1;fill-rule:evenodd;stroke:#ff00ff;stroke-width:1.00000003pt;stroke-opacity:1"
         transform="matrix(0.4,0,0,0.4,4,0)" />
    </marker>
    <marker
       inkscape:stockid="Arrow1Mend"
       orient="auto"
       refY="0"
       refX="0"
       id="Arrow1Mend-8"
       style="overflow:visible"
       inkscape:isstock="true">
      <path
         inkscape:connector-curvature="0"
         id="path908-0"
         d="M 0,0 5,-5 -12.5,0 5,5 Z"
         style="fill:#ff00ff;fill-opacity:1;fill-rule:evenodd;stroke:#ff00ff;stroke-width:1.00000003pt;stroke-opacity:1"
         transform="matrix(-0.4,0,0,-0.4,-4,0)" />
    </marker>
    <marker
       inkscape:stockid="Arrow1Mstart"
       orient="auto"
       refY="0"
       refX="0"
       id="Arrow1Mstart-39"
       style="overflow:visible"
       inkscape:isstock="true">
      <path
         inkscape:connector-curvature="0"
         id="path905-1"
         d="M 0,0 5,-5 -12.5,0 5,5 Z"
         style="fill:#0000ff;fill-opacity:1;fill-rule:evenodd;stroke:#0000ff;stroke-width:1.00000003pt;stroke-opacity:1"
         transform="matrix(0.4,0,0,0.4,4,0)" />
    </marker>
    <marker
       inkscape:stockid="Arrow1Mend"
       orient="auto"
       refY="0"
       refX="0"
       id="Arrow1Mend-9"
       style="overflow:visible"
       inkscape:isstock="true">
      <path
         inkscape:connector-curvature="0"
         id="path908-6"
         d="M 0,0 5,-5 -12.5,0 5,5 Z"
         style="fill:#0000ff;fill-opacity:1;fill-rule:evenodd;stroke:#0000ff;stroke-width:1.00000003pt;stroke-opacity:1"
         transform="matrix(-0.4,0,0,-0.4,-4,0)" />
    </marker>
    <marker
       inkscape:stockid="Arrow1Mstart"
       orient="auto"
       refY="0"
       refX="0"
       id="Arrow1Mstart-39-3"
       style="overflow:visible"
       inkscape:isstock="true">
      <path
         inkscape:connector-curvature="0"
         id="path905-1-8"
         d="M 0,0 5,-5 -12.5,0 5,5 Z"
         style="fill:#0000ff;fill-opacity:1;fill-rule:evenodd;stroke:#0000ff;stroke-width:1.00000003pt;stroke-opacity:1"
         transform="matrix(0.4,0,0,0.4,4,0)" />
    </marker>
    <marker
       inkscape:stockid="Arrow1Mend"
       orient="auto"
       refY="0"
       refX="0"
       id="Arrow1Mend-9-0"
       style="overflow:visible"
       inkscape:isstock="true">
      <path
         inkscape:connector-curvature="0"
         id="path908-6-5"
         d="M 0,0 5,-5 -12.5,0 5,5 Z"
         style="fill:#0000ff;fill-opacity:1;fill-rule:evenodd;stroke:#0000ff;stroke-width:1.00000003pt;stroke-opacity:1"
         transform="matrix(-0.4,0,0,-0.4,-4,0)" />
    </marker>
  </defs>
  <sodipodi:namedview
     id="base"
     pagecolor="#ffffff"
     bordercolor="#666666"
     borderopacity="1.0"
     inkscape:pageopacity="0.0"
     inkscape:pageshadow="2"
     inkscape:zoom="0.98994949"
     inkscape:cx="212.70137"
     inkscape:cy="368.80848"
     inkscape:document-units="mm"
     inkscape:current-layer="layer1"
     showgrid="false"
     inkscape:window-width="1920"
     inkscape:window-height="1015"
     inkscape:window-x="0"
     inkscape:window-y="0"
     inkscape:window-maximized="1" />
  <metadata
     id="metadata5">
    <rdf:RDF>
      <cc:Work
         rdf:about="">
        <dc:format>image/svg+xml</dc:format>
        <dc:type
           rdf:resource="http://purl.org/dc/dcmitype/StillImage" />
        <dc:title></dc:title>
      </cc:Work>
    </rdf:RDF>
  </metadata>
  <g
     inkscape:label="Layer 1"
     inkscape:groupmode="layer"
     id="layer1"
     transform="translate(0,-217)">
    <path
       style="fill:none;fill-rule:evenodd;stroke:#000000;stroke-width:0.42069447;stroke-linecap:butt;stroke-linejoin:miter;stroke-miterlimit:4;stroke-dasharray:none;stroke-opacity:1"
       d="m 80.818252,244.88832 9.639252,27.86253"
       id="path10"
       inkscape:connector-curvature="0" />
    <text
       xml:space="preserve"
       style="font-style:normal;font-weight:normal;font-size:3.15210605px;line-height:125%;font-family:sans-serif;letter-spacing:0px;word-spacing:0px;fill:#000000;fill-opacity:1;stroke:none;stroke-width:0.19700663px;stroke-linecap:butt;stroke-linejoin:miter;stroke-opacity:1"
       x="79.903587"
       y="274.22659"
       id="text819"><tspan
         sodipodi:role="line"
         id="tspan817"
         x="79.903587"
         y="274.22659"
         style="stroke-width:0.19700663px">target</tspan></text>
    <path
       style="fill:none;fill-rule:evenodd;stroke:#000000;stroke-width:0.19700663;stroke-linecap:butt;stroke-linejoin:miter;stroke-miterlimit:4;stroke-dasharray:0.19700663, 0.19700663;stroke-dashoffset:0;stroke-opacity:1"
       d="m 123.7376,235.88225 16.46413,10.97615"
       id="path821"
       inkscape:connector-curvature="0" />
    <text
       xml:space="preserve"
       style="font-style:normal;font-weight:normal;font-size:3.15210605px;line-height:125%;font-family:sans-serif;letter-spacing:0px;word-spacing:0px;fill:#000000;fill-opacity:1;stroke:none;stroke-width:0.19700663px;stroke-linecap:butt;stroke-linejoin:miter;stroke-opacity:1"
       x="141.3273"
       y="249.46011"
       id="text825"><tspan
         sodipodi:role="line"
         id="tspan823"
         x="141.3273"
         y="249.46011"
         style="stroke-width:0.19700663px">X-point</tspan></text>
    <path
       style="fill:none;fill-rule:evenodd;stroke:#000000;stroke-width:0.19700663;stroke-linecap:butt;stroke-linejoin:miter;stroke-miterlimit:4;stroke-dasharray:0.39401324, 0.7880265;stroke-dashoffset:0;stroke-opacity:1"
       d="m 80.818252,244.88832 c 0.09381,0.0704 0.173654,0.16489 0.281438,0.21108 0.06467,0.0277 0.144329,-0.0222 0.211078,0 0.08022,0.0267 0.128531,0.12238 0.211079,0.14072 0.379941,0.0844 0.337726,-0.0422 0.633236,0 0.09573,0.0137 0.185218,0.0607 0.281438,0.0704 0.14002,0.014 0.282015,-0.0127 0.422156,0 0.119098,0.0108 0.232804,0.0585 0.351798,0.0704 0.116684,0.0117 0.234532,0 0.351798,0 0.281438,0 0.562876,0 0.844314,0 0.609783,0 1.219565,0 1.829347,0 0.867767,0 1.735535,0 2.603302,0 0.281438,0 0.562876,0 0.844314,0 0.164173,0 0.332549,0.0369 0.492516,0 0.153301,-0.0354 0.272903,-0.16133 0.422158,-0.21108 0.06675,-0.0222 0.14072,0 0.211079,0 0.164171,0 0.329019,0.0149 0.492516,0 0.0963,-0.009 0.186616,-0.0514 0.281438,-0.0704 0.13989,-0.028 0.280204,-0.0562 0.422158,-0.0704 0.09334,-0.009 0.187625,0 0.281438,0 0.187625,0 0.375803,0.0144 0.562875,0 0.119236,-0.009 0.2327,-0.0595 0.351799,-0.0704 0.14014,-0.0127 0.284788,0.0305 0.422156,0 0.08255,-0.0183 0.129043,-0.12021 0.211078,-0.14072 0.113766,-0.0284 0.237324,0.0254 0.351799,0 0.102388,-0.0228 0.179049,-0.11797 0.281438,-0.14072 0.225149,-0.05 0.352734,0.03 0.562875,0 0.191457,-0.0273 0.37066,-0.11936 0.562876,-0.14072 0.110566,-0.0123 0.692874,0.0147 0.773954,0 1.023771,-0.18614 -0.382187,-0.1285 0.773956,-0.21108 0.141845,-0.0101 1.194704,0.0127 1.266471,0 0.175896,-0.031 0.316088,-0.18322 0.492517,-0.21108 0.277994,-0.0439 0.567158,0.0489 0.844313,0 0.134674,-0.0238 0.218545,-0.18033 0.3518,-0.21108 0.18282,-0.0422 0.37561,0.0117 0.56288,0 0.18871,-0.0118 0.37746,-0.0333 0.56288,-0.0704 1.66892,-0.33378 -1.04709,0.10565 1.19611,-0.42216 0.15981,-0.0376 0.32892,0.0136 0.49252,0 0.11918,-0.01 0.23281,-0.0585 0.3518,-0.0704 0.92776,0 -0.15717,0.0284 0.63324,-0.0704 0.0931,-0.0116 0.18857,0.0133 0.28144,0 0.35778,-0.0511 0.11619,-0.14744 0.56287,-0.28144 0.11232,-0.0337 0.23525,0.013 0.3518,0 0.0961,-0.0107 0.18662,-0.0514 0.28144,-0.0704 0.13989,-0.028 0.28552,-0.0294 0.42216,-0.0704 0.10046,-0.0301 0.18323,-0.1039 0.28144,-0.14072 0.0905,-0.0339 0.1897,-0.0398 0.28144,-0.0704 0.1901,-0.0634 0.36926,-0.15945 0.56288,-0.21108 0.16024,-0.0427 0.33666,-0.0137 0.49251,-0.0704 0.11021,-0.0401 0.17019,-0.174 0.28144,-0.21108 0.17938,-0.0598 0.38017,-0.0216 0.56288,-0.0704 0.17258,-0.046 0.32143,-0.15976 0.49251,-0.21108 0.0674,-0.0202 0.14072,0 0.21108,0 0.14072,-0.0704 0.27484,-0.15584 0.42215,-0.21108 0.0439,-0.0165 0.0938,0 0.14072,0 0.0938,-0.0234 0.19307,-0.0311 0.28144,-0.0704 0.12497,-0.0555 0.22948,-0.14992 0.3518,-0.21108 0.0663,-0.0332 0.14474,-0.0372 0.21108,-0.0704 0.0756,-0.0378 0.13085,-0.11398 0.21108,-0.14072 0.10554,-0.0352 0.24626,0.0352 0.3518,0 0.0315,-0.0105 0.0407,-0.0555 0.0704,-0.0704 0.11727,-0.0469 0.23453,-0.0938 0.3518,-0.14072 0.0234,-0.0234 0.0419,-0.0533 0.0704,-0.0704 0.0899,-0.054 0.18405,-0.10177 0.28144,-0.14072 0.0218,-0.009 0.0509,0.013 0.0704,0 0.22908,-0.15272 0.0408,-0.13089 0.28144,-0.21108 0.0917,-0.0306 0.1897,-0.0398 0.28144,-0.0704 0.0498,-0.0166 0.0938,-0.0469 0.14072,-0.0704 0.0938,-0.0469 0.18503,-0.0994 0.28144,-0.14072 0.0682,-0.0292 0.14222,-0.0428 0.21108,-0.0704 0.16405,-0.0656 0.15178,-0.10739 0.35179,-0.14072 0.0694,-0.0116 0.14434,0.0222 0.21108,0 0.0802,-0.0267 0.13257,-0.10932 0.21108,-0.14072 0.0436,-0.0174 0.0938,0 0.14072,0 0.23453,0 0.46906,0 0.7036,0 0.25798,0 0.51597,0 0.77395,0 0.0938,0 0.18762,0 0.28144,0 0.0469,0 0.0947,0.009 0.14071,0 0.0727,-0.0145 0.13836,-0.0558 0.21108,-0.0704 0.11276,-0.0226 0.23905,0.0225 0.3518,0 0.0514,-0.0103 0.091,-0.0538 0.14072,-0.0704 0.0222,-0.007 0.0469,0 0.0704,0 0.0704,0 0.14208,0.0138 0.21107,0 0.0514,-0.0103 0.0893,-0.0601 0.14072,-0.0704 0.069,-0.0138 0.14434,0.0222 0.21109,0 0.0802,-0.0267 0.13335,-0.10741 0.21107,-0.14072 0.0889,-0.0381 0.18763,-0.0469 0.28145,-0.0704 0.0938,-0.0235 0.18661,-0.0514 0.28143,-0.0704 0.023,-0.005 0.0481,0.007 0.0704,0 0.0497,-0.0166 0.0938,-0.0469 0.14073,-0.0704 0.0469,-0.0235 0.10363,-0.0333 0.14071,-0.0704 0.0166,-0.0166 -0.0105,-0.0494 0,-0.0704 0.0148,-0.0297 0.0469,-0.0469 0.0704,-0.0704 0.0235,-0.0234 0.0428,-0.052 0.0704,-0.0704 0.0436,-0.0291 0.0998,-0.0376 0.14073,-0.0704 0.0777,-0.0622 0.12468,-0.16172 0.21107,-0.21108 0.16792,-0.096 0.40551,-0.0283 0.56288,-0.14073 0.0954,-0.0682 0.12816,-0.19851 0.21108,-0.28143 0.002,-0.003 0.26926,-0.13341 0.28145,-0.14072 0.16518,-0.0991 0.19096,-0.14675 0.35179,-0.21108 0.0689,-0.0275 0.14222,-0.0428 0.21108,-0.0704 0.0487,-0.0195 0.0988,-0.0389 0.14072,-0.0704 0.18326,-0.13745 0.0771,-0.14296 0.28144,-0.21108 0.0222,-0.007 0.0469,0 0.0703,0 0.0469,0 0.0962,0.0148 0.14072,0 0.0315,-0.0105 0.0407,-0.0555 0.0704,-0.0704 0.021,-0.0105 0.0494,0.0105 0.0704,0 0.0297,-0.0148 0.0389,-0.0599 0.0704,-0.0704 0.0445,-0.0148 0.0938,0 0.14072,0 0.0234,0 0.0494,0.0105 0.0704,0 0.0297,-0.0148 0.0407,-0.0555 0.0704,-0.0704 0.021,-0.0105 0.0494,0.0105 0.0704,0 0.0297,-0.0148 0.0407,-0.0555 0.0703,-0.0704 0.021,-0.0105 0.0481,0.007 0.0704,0 0.0498,-0.0166 0.092,-0.0509 0.14072,-0.0704 0.0689,-0.0275 0.14748,-0.0322 0.21108,-0.0704 0.11727,-0.0704 0.11727,-0.14072 0.21108,-0.21109 0.0676,-0.0507 0.14343,-0.09 0.21108,-0.14071 0.0531,-0.0398 0.0889,-0.0993 0.14071,-0.14072 0.0916,-0.0733 0.18387,-0.14603 0.28144,-0.21109 0.11379,-0.0759 0.23801,-0.13522 0.3518,-0.21107 0.0276,-0.0184 0.0407,-0.0555 0.0704,-0.0704 0.021,-0.0105 0.0481,0.007 0.0704,0 0.0498,-0.0166 0.091,-0.0538 0.14072,-0.0704 0.0222,-0.007 0.0494,0.0105 0.0704,0 0.0982,-0.0491 0.11479,-0.20366 0.14072,-0.28144"
       id="path827"
       inkscape:connector-curvature="0" />
    <path
       style="fill:none;fill-rule:evenodd;stroke:#000000;stroke-width:0.19700663;stroke-linecap:butt;stroke-linejoin:miter;stroke-miterlimit:4;stroke-dasharray:0.39401324, 0.7880265;stroke-dashoffset:0;stroke-opacity:1"
       d="m 83.210475,251.57251 c 0.256448,0.0308 0.51725,-0.0257 0.773955,0 0.118995,0.0119 0.232622,0.0604 0.351797,0.0704 0.163606,0.0136 0.328345,0 0.492517,0 0.187626,0 0.375251,0 0.562876,0 0.51597,0 1.03194,0 1.547909,0 1.196112,0 2.392224,0 3.588336,0 0.562876,0 1.125751,0 1.688628,0 0.351797,0 0.709476,0.0641 1.055392,0 0.299793,-0.0555 0.552633,-0.26302 0.844314,-0.3518 0.250855,-0.0763 0.522229,-0.0673 0.773954,-0.14072 0.313599,-0.0915 0.601469,-0.25899 0.914674,-0.3518 0.321965,-0.0954 0.667872,-0.10076 0.985034,-0.21108 0.228062,-0.0793 0.40416,-0.27544 0.633236,-0.3518 0.201479,-0.0672 0.424608,-0.0306 0.633234,-0.0704 0.284976,-0.0543 0.567045,-0.12576 0.844316,-0.21107 0.328343,-0.11727 0.656688,-0.23454 0.985033,-0.35181 0.28144,-0.0469 0.57135,-0.0576 0.84432,-0.14071 0.2711,-0.0825 0.49903,-0.28307 0.77395,-0.35181 0.29667,-0.0742 0.6165,-0.003 0.91468,-0.0704 0.0214,-0.005 1.23579,-0.55385 1.26648,-0.56287 0.1814,-0.0534 0.37611,-0.0409 0.56287,-0.0704 0.25901,-0.0409 0.52131,-0.0705 0.77396,-0.14072 0.1721,-0.0478 0.32307,-0.1546 0.49252,-0.21108 0.36696,-0.12232 0.75691,-0.16497 1.12576,-0.28144 0.52354,-0.16533 1.02204,-0.40512 1.54791,-0.56288 0.2071,-0.0621 0.42412,-0.0857 0.63323,-0.14072 0.2368,-0.0623 0.4668,-0.14877 0.70359,-0.21108 0.20911,-0.055 0.42346,-0.0883 0.63324,-0.14072 0.25942,-0.0648 0.51453,-0.14623 0.77396,-0.21108 0.66746,-0.16687 1.04674,-0.21792 1.68863,-0.42216 0.21803,-0.0694 1.13361,-0.42815 1.40719,-0.49252 0.18406,-0.0433 0.376,-0.0416 0.56288,-0.0704 0.25848,-0.0398 0.51205,-0.12057 0.77396,-0.14072 0.16368,-0.0126 0.33025,0.025 0.49251,0 0.78116,-0.26039 0.0599,-0.0694 0.84431,-0.14072 0.58977,-0.0536 0.15029,-0.0746 0.77396,-0.3518 0.0643,-0.0286 0.14143,0.01 0.21108,0 0.0957,-0.0137 0.1897,-0.0398 0.28144,-0.0704 0.0497,-0.0166 0.0938,-0.0469 0.14072,-0.0704 0.11727,-0.0469 0.23036,-0.10602 0.3518,-0.14072 0.0451,-0.0129 0.0952,0.0114 0.14072,0 0.0509,-0.0127 0.0898,-0.0576 0.14072,-0.0704 0.1384,-0.0346 0.28093,-0.0502 0.42216,-0.0704 0.0232,-0.003 0.0476,0.006 0.0704,0 0.072,-0.018 0.13766,-0.0599 0.21108,-0.0704 0.0929,-0.0133 0.18762,0 0.28144,0 0.0704,0 0.14433,0.0222 0.21108,0 0.0802,-0.0267 0.13256,-0.10932 0.21107,-0.14072 0.0436,-0.0174 0.0947,0.009 0.14072,0 0.0727,-0.0145 0.14222,-0.0428 0.21108,-0.0704 0.0487,-0.0195 0.0893,-0.0601 0.14072,-0.0704 0.069,-0.0138 0.14143,0.01 0.21108,0 0.25393,-0.0363 0.38761,-0.11897 0.63323,-0.21108 0.0695,-0.026 0.13793,-0.0582 0.21108,-0.0704 0.0694,-0.0116 0.14209,0.0138 0.21108,0 0.0514,-0.0103 0.091,-0.0538 0.14072,-0.0704 0.0917,-0.0306 0.18662,-0.0514 0.28144,-0.0704 0.023,-0.005 0.0494,0.0105 0.0704,0 0.0756,-0.0378 0.13256,-0.10932 0.21107,-0.14072 0.0557,-0.0223 0.42156,0.0177 0.49252,0 0.0322,-0.008 0.0382,-0.0623 0.0704,-0.0704 0.0782,-0.0196 0.26059,0.013 0.3518,0 0.0501,-0.007 0.55641,-0.1078 0.63323,-0.14073 0.0777,-0.0333 0.13545,-0.1029 0.21108,-0.14071 0.021,-0.0105 0.0494,0.0105 0.0704,0 0.21456,-0.10729 -0.12869,-0.0558 0.21108,-0.14072 0.0455,-0.0114 0.0938,0 0.14072,0 0.0234,0 0.0494,0.0105 0.0704,0 0.0297,-0.0148 0.0428,-0.052 0.0704,-0.0704 0.0873,-0.0582 0.19417,-0.0825 0.28144,-0.14073 0.0276,-0.0184 0.0407,-0.0555 0.0704,-0.0704 0.021,-0.0105 0.0481,0.007 0.0704,0 0.0268,-0.009 0.41507,-0.20221 0.42216,-0.21107 0.0655,-0.0819 0.0665,-0.20728 0.14072,-0.28144 0.0524,-0.0524 0.14474,-0.0372 0.21108,-0.0704 0.0756,-0.0378 0.14343,-0.09 0.21107,-0.14072 0.0531,-0.0398 0.0938,-0.0938 0.14072,-0.14072 0.0938,-0.0938 0.18763,-0.18763 0.28144,-0.28144 0.0235,-0.0234 0.0428,-0.052 0.0704,-0.0704 0.0436,-0.0291 0.0971,-0.0413 0.14072,-0.0704 0.0276,-0.0184 0.0407,-0.0555 0.0703,-0.0704 0.021,-0.0105 0.0494,0.0105 0.0704,0 0.0593,-0.0297 0.0855,-0.10393 0.14072,-0.14072 0.0436,-0.0291 0.0971,-0.0413 0.14072,-0.0704 0.0658,-0.0439 0.23638,-0.23638 0.28144,-0.28144 0.0234,-0.0235 0.0407,-0.0555 0.0704,-0.0704 0.021,-0.0105 0.0469,0 0.0703,0 0.0704,-0.0234 0.15175,-0.0259 0.21108,-0.0704 0.0427,-0.0854 0.0601,-0.15736 0.14072,-0.21108 0.15572,-0.10382 0.15971,-0.0285 0.28144,-0.21108 0.013,-0.0195 -0.0105,-0.0494 0,-0.0704 0.0148,-0.0297 0.0469,-0.0469 0.0704,-0.0704 0.0234,-0.0234 0.0469,-0.0469 0.0703,-0.0704 0.30433,-0.30433 0.011,0.0186 0.21108,-0.28144 0.0184,-0.0276 0.0555,-0.0407 0.0704,-0.0704 0.0105,-0.021 0,-0.0469 0,-0.0704 0.0234,-0.0469 0.0469,-0.0938 0.0704,-0.14072"
       id="path829"
       inkscape:connector-curvature="0" />
    <path
       style="fill:none;fill-rule:evenodd;stroke:#000000;stroke-width:0.19700663;stroke-linecap:butt;stroke-linejoin:miter;stroke-miterlimit:4;stroke-dasharray:0.39401324, 0.7880265;stroke-dashoffset:0;stroke-opacity:1"
       d="m 86.165574,259.3121 c 1.571363,0 3.142725,0 4.714088,0 2.415677,0 4.831353,0 7.24703,0 0.750501,0 1.501002,0 2.251508,0 0.28144,0 0.56427,0.028 0.84432,0 0.19244,-0.0192 0.37184,-0.11055 0.56287,-0.14072 0.68096,-0.10752 0.82574,-0.005 1.47756,-0.21108 0.22027,-0.0696 0.41411,-0.20839 0.63324,-0.28144 1.04801,-0.34933 0.21676,0.0525 1.33683,-0.21108 0.17387,-0.0409 0.32078,-0.16201 0.49252,-0.21108 0.15946,-0.0456 0.33401,-0.0216 0.49252,-0.0704 0.15038,-0.0463 0.27755,-0.14911 0.42216,-0.21108 0.18418,-0.0789 0.37135,-0.15215 0.56288,-0.21108 0.1143,-0.0352 0.23505,-0.0444 0.35179,-0.0704 0.0944,-0.021 0.18763,-0.0469 0.28144,-0.0704 0.0938,-0.0234 0.19089,-0.0364 0.28144,-0.0704 0.0982,-0.0368 0.17905,-0.11797 0.28143,-0.14072 0.11448,-0.0254 0.23948,0.0337 0.3518,0 0.13099,-0.0393 0.22948,-0.14992 0.3518,-0.21108 0.0663,-0.0332 0.14668,-0.0336 0.21108,-0.0704 0.10181,-0.0582 0.17163,-0.16991 0.28143,-0.21108 0.0878,-0.0329 0.19043,0.0228 0.28144,0 0.25611,-0.064 0.5982,-0.38314 0.84432,-0.49252 0.0884,-0.0393 0.19089,-0.0364 0.28144,-0.0704 0.56287,-0.21108 0.0704,-0.0704 0.42216,-0.21108 0.0689,-0.0275 0.14221,-0.0428 0.21107,-0.0704 0.0487,-0.0195 0.091,-0.0538 0.14073,-0.0704 0.0917,-0.0306 0.1897,-0.0398 0.28143,-0.0704 0.0995,-0.0332 0.18406,-0.10177 0.28145,-0.14072 0.2241,-0.0896 0.49356,-0.10606 0.70359,-0.21108 0.0756,-0.0378 0.13191,-0.11103 0.21108,-0.14072 0.11198,-0.042 0.23578,-0.0414 0.3518,-0.0704 0.072,-0.018 0.13766,-0.0599 0.21107,-0.0704 0.0929,-0.0133 0.19159,0.027 0.28144,0 0.1507,-0.0452 0.274,-0.15817 0.42216,-0.21108 0.18214,-0.065 0.37601,-0.0909 0.56288,-0.14072 0.16498,-0.044 0.32871,-0.0925 0.49251,-0.14072 0.23491,-0.0691 0.47011,-0.13735 0.7036,-0.21108 0.21217,-0.067 0.41455,-0.17008 0.63323,-0.21108 0.16136,-0.0302 0.32883,0.0126 0.49252,0 0.14224,-0.0109 0.27986,-0.0602 0.42216,-0.0704 0.18715,-0.0134 0.37942,0.0393 0.56288,0 0.15384,-0.033 0.27179,-0.16481 0.42216,-0.21108 0.1585,-0.0488 0.32861,-0.0451 0.49252,-0.0704 0.141,-0.0217 0.28021,-0.0562 0.42216,-0.0704 0.0934,-0.009 0.18857,0.0133 0.28144,0 0.31022,-0.0443 0.24089,-0.17292 0.56287,-0.3518 0.27983,-0.15546 0.2076,-0.0346 0.42216,-0.0704 0.0954,-0.0159 0.18704,-0.0494 0.28144,-0.0704 0.11674,-0.0259 0.24188,-0.0233 0.3518,-0.0704 0.061,-0.0261 0.0814,-0.11106 0.14072,-0.14072 0.0865,-0.0433 0.18845,-0.0438 0.28143,-0.0704 0.0713,-0.0204 0.13836,-0.0558 0.21108,-0.0704 0.046,-0.009 0.0962,0.0148 0.14072,0 0.2556,0.14086 0.22482,-0.16029 0.3518,-0.21109 0.0898,-0.0359 0.19852,-0.0206 0.28144,-0.0704 0.045,-0.027 0.0389,-0.0988 0.0703,-0.14071 0.0398,-0.0531 0.0838,-0.10659 0.14072,-0.14072 0.18192,-0.10915 0.36831,-0.0542 0.56288,-0.14072 0.10716,-0.0476 0.18386,-0.14604 0.28144,-0.21108 0.18658,-0.12439 0.16476,-0.0378 0.42215,-0.14072 0.0308,-0.0123 0.0438,-0.0505 0.0704,-0.0704 0.69772,-0.5233 -0.1393,0.11631 0.3518,-0.21109 0.0276,-0.0184 0.0407,-0.0555 0.0704,-0.0704 0.0549,-0.0275 0.29032,-0.0792 0.3518,-0.14071 0.0371,-0.0371 0.0333,-0.10364 0.0703,-0.14072 0.0166,-0.0166 0.0481,0.007 0.0704,0 0.0497,-0.0166 0.0938,-0.0469 0.14072,-0.0704 0.0469,-0.0235 0.0957,-0.0434 0.14072,-0.0704 0.0725,-0.0435 0.13765,-0.0988 0.21107,-0.14072 0.2528,-0.14445 0.27825,-0.11002 0.49252,-0.28144 0.0518,-0.0414 0.0855,-0.10393 0.14072,-0.14072 0.43923,-0.29282 0.11727,-0.0234 0.49252,-0.21108 0.0756,-0.0378 0.13765,-0.0988 0.21107,-0.14072 0.0911,-0.052 0.19754,-0.0778 0.28144,-0.14072 0.10614,-0.0796 0.16497,-0.21791 0.28144,-0.28144 0.14989,-0.0818 0.33649,-0.0714 0.49252,-0.14072 0.0606,-0.0269 0.0938,-0.0938 0.14072,-0.14072 0.0938,-0.0938 0.1753,-0.20184 0.28143,-0.28144 0.0839,-0.0629 0.19753,-0.0778 0.28144,-0.14072 1.01894,-0.76421 -0.40327,0.15158 0.56288,-0.49252 0.11379,-0.0759 0.23801,-0.13522 0.3518,-0.21108 0.0976,-0.065 0.18762,-0.14072 0.28143,-0.21108 0.0938,-0.0704 0.18763,-0.14072 0.28144,-0.21108 0.0704,-0.0469 0.14343,-0.09 0.21108,-0.14072 0.0796,-0.0597 0.14072,-0.14072 0.21108,-0.21108 0.0167,-0.0167 0.27355,-0.25778 0.28144,-0.28144 0.0557,-0.1672 -0.0833,-0.12779 0.0703,-0.28144 0.17089,-0.17089 0.10332,0.0209 0.21108,-0.14072 0.12296,-0.18443 0.0263,-0.12296 0.14072,-0.3518 0.0148,-0.0297 0.0505,-0.0438 0.0704,-0.0704 0.0507,-0.0676 0.1029,-0.13544 0.14072,-0.21108 0.0332,-0.0663 0.0524,-0.13912 0.0704,-0.21108 0.006,-0.0228 -0.0121,-0.0502 0,-0.0704 0.0603,-0.10055 0.15074,-0.18088 0.21107,-0.28144 0.0121,-0.0201 -0.006,-0.0476 0,-0.0704 0.14641,-0.58564 -0.005,0.0849 0.14072,-0.3518 0.0306,-0.0917 0.0344,-0.19165 0.0704,-0.28144 0.0246,-0.0616 0.11105,-0.0814 0.14071,-0.14071 0.0332,-0.0663 0.0372,-0.14475 0.0704,-0.21109 0.0148,-0.0297 0.052,-0.0428 0.0704,-0.0704 0.0291,-0.0436 0.0413,-0.0971 0.0704,-0.14072 0.0368,-0.0552 0.0938,-0.0938 0.14072,-0.14071 0.0938,-0.0938 0.18763,-0.18763 0.28144,-0.28145 0.11726,-0.11726 0.23453,-0.23453 0.35179,-0.3518 0.0704,-0.0704 0.14892,-0.13338 0.21108,-0.21107 0.0328,-0.0409 0.0389,-0.0988 0.0704,-0.14072 0.0226,-0.0301 0.26011,-0.23879 0.28144,-0.28145 0.0105,-0.021 0,-0.0469 0,-0.0704"
       id="path831"
       inkscape:connector-curvature="0" />
    <path
       style="fill:none;fill-rule:evenodd;stroke:#000000;stroke-width:0.19700663;stroke-linecap:butt;stroke-linejoin:miter;stroke-miterlimit:4;stroke-dasharray:0.39401324, 0.7880265;stroke-dashoffset:0;stroke-opacity:1"
       d="m 90.457504,272.75085 c 0.09381,-0.0938 0.17784,-0.19856 0.28144,-0.28145 0.01832,-0.0147 0.0469,0 0.07036,0 h 0.07036 0.492516 c 0.07036,0 0.141678,0.0116 0.21108,0 0.07316,-0.0122 0.137658,-0.0599 0.211078,-0.0704 0.09287,-0.0133 0.190427,0.0228 0.281438,0 0.101754,-0.0254 0.179684,-0.11528 0.281438,-0.14071 0.09101,-0.0228 0.190426,0.0228 0.281438,0 0.101753,-0.0254 0.184055,-0.10177 0.281438,-0.14072 0.137723,-0.0551 0.278255,-0.10475 0.422157,-0.14073 0.138401,-0.0346 0.288581,-0.0203 0.422158,-0.0704 0.06211,-0.0233 0.07636,-0.12463 0.140717,-0.14072 0.136518,-0.0341 0.285641,0.0341 0.422158,0 0.152631,-0.0382 0.275315,-0.1546 0.422158,-0.21107 0.15936,-0.0613 0.326873,-0.0993 0.492517,-0.14073 0.116017,-0.029 0.236423,-0.0389 0.351796,-0.0704 0.143106,-0.039 0.280082,-0.0981 0.422158,-0.14072 0.09262,-0.0278 0.188145,-0.0449 0.281438,-0.0704 0.164724,-0.0449 0.327791,-0.0958 0.492516,-0.14071 0.09329,-0.0254 0.188818,-0.0426 0.281438,-0.0704 0.142075,-0.0426 0.280082,-0.0981 0.422158,-0.14072 1.052846,-0.31586 -0.861325,0.29535 0.773954,-0.14072 0.193618,-0.0516 0.372776,-0.14771 0.562876,-0.21108 0.161981,-0.054 0.330537,-0.0867 0.492516,-0.14072 0.190102,-0.0634 0.372776,-0.14771 0.562877,-0.21108 0.323958,-0.10799 0.661078,-0.17345 0.985038,-0.28144 0.25543,-0.0851 0.64514,-0.24399 0.91468,-0.3518 0.11726,-0.0469 0.24469,-0.0738 0.3518,-0.14072 0.0844,-0.0527 0.12208,-0.16658 0.21108,-0.21108 0.15494,-0.0775 0.47163,-0.0509 0.63323,-0.14072 0.13128,-0.0729 0.22446,-0.20185 0.35181,-0.28144 0.12578,-0.0786 0.29873,-0.0584 0.42215,-0.14072 0.15241,-0.10161 0.26509,-0.25756 0.42216,-0.3518 0.0829,-0.0498 0.19089,-0.0364 0.28143,-0.0704 0.0982,-0.0368 0.18976,-0.0898 0.28144,-0.14072 0.11955,-0.0664 0.22328,-0.16434 0.3518,-0.21108 0.13407,-0.0488 0.28781,-0.0224 0.42216,-0.0704 0.19755,-0.0705 0.36709,-0.20614 0.56288,-0.28144 0.11162,-0.0429 0.24141,-0.0244 0.3518,-0.0704 0.17455,-0.0727 0.31798,-0.20872 0.49252,-0.28144 0.11039,-0.046 0.23835,-0.0325 0.3518,-0.0704 0.0995,-0.0332 0.18762,-0.0938 0.28143,-0.14072 0.14072,-0.0704 0.27893,-0.14598 0.42216,-0.21108 0.11498,-0.0523 0.23638,-0.0894 0.3518,-0.14072 0.36778,-0.16346 0.2161,-0.14239 0.63323,-0.28144 0.1265,-0.0422 0.52171,-0.12213 0.63323,-0.14072 0.16358,-0.0273 0.33401,-0.0216 0.49252,-0.0704 0.15037,-0.0463 0.27179,-0.16481 0.42216,-0.21108 0.15851,-0.0488 0.3299,-0.0378 0.49252,-0.0704 0.0727,-0.0145 0.13977,-0.05 0.21108,-0.0704 0.36283,-0.10367 0.28558,-0.0439 0.7036,-0.21108 0.0974,-0.039 0.18323,-0.10389 0.28144,-0.14072 0.0905,-0.034 0.18762,-0.0469 0.28144,-0.0704 0.11726,0 0.24159,0.0401 0.3518,0 0.15894,-0.0578 0.26761,-0.21276 0.42216,-0.28144 0.0643,-0.0286 0.14114,0.008 0.21107,0 0.14179,-0.0158 0.2818,-0.0448 0.42216,-0.0704 0.11766,-0.0214 0.2327,-0.0595 0.35179,-0.0704 0.49026,-0.0446 0.35896,0.0683 0.84432,-0.0704 0.19268,-0.055 0.36638,-0.17178 0.56288,-0.21108 0.16098,-0.0322 0.32902,0.0149 0.49251,0 0.0963,-0.009 0.18522,-0.0607 0.28144,-0.0704 0.14002,-0.014 0.28213,0.014 0.42215,0 0.0962,-0.01 0.18763,-0.0469 0.28145,-0.0704 0.0938,-0.0234 0.19494,-0.0271 0.28143,-0.0704 0.10489,-0.0524 0.17428,-0.16346 0.28144,-0.21108 0.10929,-0.0486 0.23578,-0.0414 0.3518,-0.0704 0.0719,-0.018 0.13793,-0.0582 0.21108,-0.0704 0.0694,-0.0116 0.14168,0.0116 0.21108,0 0.0731,-0.0122 0.13836,-0.0558 0.21108,-0.0704 0.046,-0.009 0.0972,0.0174 0.14072,0 0.2857,-0.11428 0.11954,-0.17325 0.42216,-0.21108 0.5259,-0.0657 0.17421,0.0827 0.63324,-0.0704 0.12063,-0.0402 0.25145,-0.15087 0.3518,-0.21108 0.045,-0.027 0.0971,-0.0413 0.14072,-0.0704 0.0276,-0.0184 0.0407,-0.0555 0.0704,-0.0704 0.0663,-0.0332 0.14474,-0.0372 0.21108,-0.0704 0.66365,-0.33183 -0.0154,-0.0132 0.28143,-0.21108 0.0436,-0.0291 0.0988,-0.0389 0.14072,-0.0704 0.0531,-0.0398 0.0889,-0.0993 0.14072,-0.14072 0.066,-0.0528 0.14343,-0.09 0.21108,-0.14072 0.0265,-0.0199 0.0428,-0.052 0.0704,-0.0704 0.0436,-0.0291 0.0988,-0.0389 0.14072,-0.0704 0.0531,-0.0398 0.0938,-0.0938 0.14072,-0.14072 0.11726,-0.11727 0.22439,-0.24563 0.35179,-0.3518 0.0866,-0.17542 0.29414,-0.11964 0.42216,-0.21108 0.10796,-0.0771 0.18763,-0.18763 0.28144,-0.28144 0.0469,-0.0469 0.0845,-0.10556 0.14072,-0.14072 0.13341,-0.0834 0.28874,-0.1277 0.42215,-0.21108 0.1451,-0.0907 0.27633,-0.33883 0.42216,-0.42216 0.21261,-0.0532 0.25987,-0.0433 0.42216,-0.14072 0.0725,-0.0435 0.14343,-0.09 0.21108,-0.14072 0.0265,-0.0199 0.0396,-0.058 0.0704,-0.0704 0.0898,-0.0359 0.19089,-0.0364 0.28144,-0.0704 0.19641,-0.0737 0.36646,-0.20779 0.56287,-0.28144 0.39236,-0.14714 0.20682,0.0258 0.63324,-0.21108 0.10251,-0.057 0.17655,-0.15864 0.28144,-0.21108 0.0865,-0.0433 0.1897,-0.0398 0.28143,-0.0704 0.18795,-0.0627 0.22769,-0.1734 0.42216,-0.28144 0.88978,-0.35592 -0.14765,0.0944 0.63324,-0.3518 0.0644,-0.0368 0.14748,-0.0322 0.21108,-0.0704 0.0569,-0.0341 0.0904,-0.0975 0.14072,-0.14072 0.11402,-0.0977 0.22684,-0.19814 0.35179,-0.28144 0.0873,-0.0582 0.19417,-0.0825 0.28144,-0.14072 0.14378,-0.0958 0.66463,-0.55124 0.77395,-0.63324 0.1353,-0.10148 0.28454,-0.18314 0.42216,-0.28144 0.38169,-0.27264 0.73547,-0.58413 1.12576,-0.84432 0.29787,-0.19858 0.61481,-0.36731 0.91467,-0.56288 0.23979,-0.15638 0.46706,-0.33124 0.70359,-0.49252 0.27947,-0.19055 0.5683,-0.36736 0.84432,-0.56288 0.28707,-0.20334 0.56287,-0.42216 0.84431,-0.63324 0.18763,-0.14071 0.37974,-0.27565 0.56288,-0.42216 0.16884,-0.13507 0.3247,-0.2858 0.49251,-0.42216 0.20754,-0.16862 0.42682,-0.32252 0.63324,-0.49252 0.19245,-0.15848 0.3682,-0.33677 0.56288,-0.49251 0.15754,-0.12604 0.32626,-0.2375 0.49251,-0.3518 0.20905,-0.14372 0.46062,-0.23626 0.63324,-0.42216 0.14274,-0.15372 0.15354,-0.39661 0.28144,-0.56288 0.11168,-0.14519 0.30046,-0.21489 0.42215,-0.3518 0.0433,-0.0487 0.15425,-0.32744 0.21108,-0.42216 0.0435,-0.0725 0.09,-0.14343 0.14072,-0.21108 0.0199,-0.0265 0.0555,-0.0407 0.0704,-0.0704 0.0105,-0.021 -0.0105,-0.0494 0,-0.0704 0.161,-0.32201 -0.0292,0.29856 0.14072,-0.21108 0.0148,-0.0445 -0.021,-0.0988 0,-0.14072 0.081,-0.16196 0.0825,0.0307 0.21108,-0.14072 0.0445,-0.0593 0.0259,-0.15175 0.0703,-0.21108 0.0315,-0.042 0.0971,-0.0413 0.14072,-0.0704 0.0276,-0.0184 0.0428,-0.052 0.0704,-0.0704 0.0436,-0.0291 0.10364,-0.0333 0.14072,-0.0704 0.0166,-0.0166 -0.0105,-0.0494 0,-0.0704 0.0148,-0.0297 0.0469,-0.0469 0.0704,-0.0704 0.0414,-0.0414 0.26514,-0.24886 0.28143,-0.28144 0.0101,-0.0201 0,-0.31421 0,-0.3518 v -0.49224 -0.14072 c 0,-0.0234 -0.0234,-0.0704 0,-0.0704 0.0235,0 0,0.0938 0,0.0704 0,-0.0469 -0.0148,-0.0962 0,-0.14072 0.0212,-0.0637 0.18303,-0.14561 0.21108,-0.21108 0.0584,-0.13634 0.0938,-0.28144 0.14072,-0.42216"
       id="path833"
       inkscape:connector-curvature="0"
       sodipodi:nodetypes="ccscscscccccccccccccccccccccccccccccccccccccscccccccccccccccccccccccccccccccccccccccccccscccccccccccccccccccccccccccsccsccccccccccccccsscssscsc" />
    <path
       style="fill:none;fill-rule:evenodd;stroke:#999999;stroke-width:0.19700663px;stroke-linecap:butt;stroke-linejoin:miter;stroke-opacity:1"
       d="m 82.858677,245.31048 9.357816,26.80713"
       id="path835"
       inkscape:connector-curvature="0" />
    <path
       style="fill:none;fill-rule:evenodd;stroke:#999999;stroke-width:0.19700663px;stroke-linecap:butt;stroke-linejoin:miter;stroke-opacity:1"
       d="m 84.758384,245.16976 9.146736,26.24425"
       id="path837"
       inkscape:connector-curvature="0" />
    <path
       style="fill:none;fill-rule:evenodd;stroke:#999999;stroke-width:0.19700663px;stroke-linecap:butt;stroke-linejoin:miter;stroke-opacity:1"
       d="m 122.54149,237.00801 16.53449,11.89083"
       id="path841"
       inkscape:connector-curvature="0" />
    <path
       style="fill:none;fill-rule:evenodd;stroke:#999999;stroke-width:0.19700663px;stroke-linecap:butt;stroke-linejoin:miter;stroke-opacity:1"
       d="m 121.1343,237.71161 17.16772,12.66478"
       id="path843"
       inkscape:connector-curvature="0" />
    <path
       style="fill:none;fill-rule:evenodd;stroke:#999999;stroke-width:0.19700663px;stroke-linecap:butt;stroke-linejoin:miter;stroke-opacity:1"
       d="m 101.01143,243.83292 c 0.29803,0.29803 0.28144,0.14877 0.28144,0.3518 0,0.0234 -0.007,0.0481 0,0.0704 0.0166,0.0498 0.0538,0.091 0.0704,0.14072 0.0148,0.0445 -0.021,0.0988 0,0.14072 0.0148,0.0297 0.0469,0.0469 0.0704,0.0704 0.0469,0.0469 0.10393,0.0855 0.14073,0.14072 0.013,0.0195 -0.0105,0.0494 0,0.0704 0.0148,0.0297 0.0555,0.0407 0.0704,0.0704 0.0105,0.021 0,0.0469 0,0.0704 0,0.0469 -0.0114,0.0952 0,0.14072 0.0127,0.0509 0.0413,0.0971 0.0704,0.14072 0.069,0.10353 0.21241,0.17791 0.28144,0.28144 0.0291,0.0436 0.0413,0.0971 0.0704,0.14072 0.0184,0.0276 0.052,0.0428 0.0704,0.0704 0.17038,0.25558 -0.0206,0.0498 0.14072,0.21108 0.11726,0.11727 0.23453,0.23454 0.3518,0.3518 0.0469,0.0469 0.10392,0.0855 0.14072,0.14072 0.0582,0.0873 0.0825,0.19417 0.14072,0.28144 0.0184,0.0276 0.0555,0.0407 0.0704,0.0704 0.0105,0.021 -0.0105,0.0494 0,0.0704 0.0148,0.0297 0.058,0.0396 0.0704,0.0704 0.0359,0.0898 0.0514,0.18662 0.0704,0.28144 0.005,0.023 -0.0105,0.0494 0,0.0704 0.0148,0.0297 0.0599,0.0389 0.0704,0.0704 0.0148,0.0445 -0.021,0.0988 0,0.14072 0.0297,0.0593 0.0938,0.0938 0.14072,0.14072 0.16132,0.16133 -0.0297,-0.0445 0.14072,0.21108 0.0184,0.0276 0.0555,0.0407 0.0704,0.0704 0.0105,0.021 -0.0105,0.0494 0,0.0704 0.0297,0.0593 0.10392,0.0855 0.14072,0.14072 0.0291,0.0436 0.0413,0.0971 0.0704,0.14072 0.10733,0.16101 0.0557,-0.044 0.14072,0.21108 0.0148,0.0445 -0.021,0.0988 0,0.14072 0.0312,0.0624 0.16838,0.14703 0.21107,0.21108 0.0582,0.0873 0.0825,0.19417 0.14072,0.28144 0.0368,0.0552 0.10392,0.0855 0.14072,0.14072 0.11649,0.17475 0.0383,0.21737 0.14072,0.42216 0.0148,0.0297 0.0469,0.0469 0.0704,0.0704 0.0469,0.0469 0.10092,0.0876 0.14072,0.14072 0.0315,0.042 0.0469,0.0938 0.0704,0.14072 0.0234,0.0469 0.0576,0.0898 0.0704,0.14072 0.0114,0.0455 -0.0148,0.0962 0,0.14072 0.0105,0.0315 0.052,0.0428 0.0704,0.0704 0.0291,0.0436 0.0413,0.0971 0.0704,0.14072 0.0368,0.0552 0.10392,0.0855 0.14072,0.14072 0.0291,0.0436 0.0469,0.0938 0.0704,0.14072 0.0234,0.0469 0.0538,0.091 0.0704,0.14072 0.0592,0.17766 -0.14291,-0.0733 0.0704,0.21108 0.0398,0.0531 0.10092,0.0877 0.14072,0.14072 0.0315,0.042 0.0469,0.0938 0.0704,0.14072 0.0235,0.0469 0.0576,0.0898 0.0704,0.14072 0.0114,0.0455 -0.021,0.0988 0,0.14072 0.0297,0.0593 0.10092,0.0877 0.14072,0.14072 0.21327,0.28435 0.0111,0.0334 0.0704,0.21108 0.0332,0.0995 0.10755,0.18193 0.14072,0.28144 0.007,0.0222 -0.0141,0.0516 0,0.0704 0.0597,0.0796 0.15138,0.13148 0.21108,0.21108 0.0141,0.0188 -0.006,0.0476 0,0.0704 -0.13686,0.19548 0.11528,0.17968 0.14072,0.28144 0.0647,0.25867 -0.0797,0.15176 0.0704,0.3518 0.30433,0.30433 0.011,-0.0186 0.21108,0.28144 0.0184,0.0276 0.0555,0.0407 0.0704,0.0704 0.0332,0.0663 0.0372,0.14474 0.0704,0.21108 0.0312,0.0624 0.16838,0.14703 0.21108,0.21108 0.0291,0.0436 0.0413,0.0971 0.0704,0.14072 0.0405,0.0607 0.15612,0.15612 0.21108,0.21108 0.0234,0.0234 0.0555,0.0407 0.0704,0.0704 0.0105,0.021 -0.0105,0.0494 0,0.0704 0.032,0.064 0.26732,0.20049 0.28143,0.21108 0.0531,0.0398 0.0938,0.0938 0.14072,0.14072 0.0469,0.0469 0.0938,0.0938 0.14072,0.14072 0.0234,0.0234 0.052,0.0428 0.0704,0.0704 0.0291,0.0436 0.0469,0.0938 0.0704,0.14072 0.0234,0.0469 0.0601,0.0893 0.0704,0.14072 0.0138,0.069 -0.0261,0.14575 0,0.21108 0.0246,0.0616 0.10092,0.0877 0.14072,0.14072 0.0315,0.042 0.0469,0.0938 0.0704,0.14072 0.0234,0.0469 0.0538,0.091 0.0704,0.14072 0.007,0.0222 0,0.0469 0,0.0704 0.0235,0.0704 0.0428,0.14222 0.0704,0.21108 0.0568,0.14198 0.0512,0.12159 0.14072,0.21108 0.0235,0.0235 0.0555,0.0407 0.0704,0.0704 0.0105,0.021 -0.0105,0.0494 0,0.0704 0.0146,0.0291 0.18125,0.1912 0.21108,0.21108 0.0436,0.0291 0.0971,0.0413 0.14072,0.0704 0.10353,0.069 0.1779,0.21242 0.28143,0.28144 0.0195,0.013 0.0508,-0.013 0.0704,0 0.0469,0.0469 0.0938,0.0938 0.14072,0.14072 0.0234,0 0.0494,-0.0105 0.0704,0 0.0297,0.0148 0.0469,0.0469 0.0704,0.0704 0.0704,0.0704 0.14072,0.14072 0.21108,0.21108 0.0235,0.0234 0.0438,0.0505 0.0704,0.0704 0.0677,0.0507 0.14343,0.09 0.21108,0.14072 0.0796,0.0597 0.14072,0.14072 0.21108,0.21108 0.0469,0.0469 0.10392,0.0855 0.14072,0.14072 0.0582,0.0873 0.0825,0.19417 0.14072,0.28144 0.0368,0.0552 0.10392,0.0855 0.14072,0.14072 0.0291,0.0436 0.0469,0.0938 0.0704,0.14072 0.0234,0.0469 0.0509,0.092 0.0704,0.14072 0.0275,0.0689 0.0322,0.14748 0.0704,0.21108 0.0341,0.0569 0.10392,0.0855 0.14072,0.14072 0.013,0.0195 -0.0105,0.0494 0,0.0704 0.10728,0.21457 0.0558,-0.12868 0.14072,0.21108 0.0114,0.0455 -0.021,0.0988 0,0.14072 0.0445,0.089 0.16658,0.12208 0.21108,0.21108 0.2674,0.53481 0.0104,0.0416 0.0704,0.28144 0.018,0.072 0.0428,0.14222 0.0704,0.21108 -0.0249,0.12009 0.1029,0.13544 0.14072,0.21108 0.11442,0.22884 0.0178,0.16736 0.14072,0.3518 0.0184,0.0276 0.0555,0.0407 0.0704,0.0704 0.0105,0.021 0,0.0469 0,0.0704 0.0234,0.0469 0.0413,0.0971 0.0704,0.14072 0.0368,0.0552 0.11105,0.0814 0.14072,0.14072 0.021,0.042 -0.021,0.0988 0,0.14072 0.0148,0.0297 0.0469,0.0469 0.0704,0.0704 0.0234,0.0234 0.0469,0.0469 0.0704,0.0704 0.0469,0.0469 0.0938,0.0938 0.14072,0.14072 0,0.0234 -0.0105,0.0494 0,0.0704 0.0148,0.0297 0.0555,0.0407 0.0704,0.0704 0.0105,0.021 -0.006,0.0476 0,0.0704 0.018,0.072 0.0524,0.13913 0.0704,0.21108 0.006,0.0228 -0.0105,0.0494 0,0.0704 0.0148,0.0297 0.0469,0.0469 0.0704,0.0704 0.0234,0.0704 0.0372,0.14475 0.0704,0.21108 0.0297,0.0593 0.10392,0.0855 0.14072,0.14072 0.0866,0.1299 0.12448,0.29227 0.21107,0.42216 0.0184,0.0276 0.0555,0.0407 0.0704,0.0704 0.0187,0.0373 -0.016,0.30394 0,0.3518 0.0105,0.0315 0.0555,0.0407 0.0704,0.0704 0.0105,0.021 0,0.0469 0,0.0704 0,0.0234 0,0.0469 0,0.0704 0,0.11727 0,0.23454 0,0.3518 0,0.0938 0,0.18763 0,0.28144 0,0.0235 -0.0166,0.0538 0,0.0704 0.0166,0.0166 0.0538,-0.0166 0.0704,0 0.0169,0.0169 -0.0169,0.26451 0,0.28144 0.0524,0.0523 0.17599,-0.0866 0.14072,-0.0704 -0.33331,0.15384 -0.65669,0.32836 -0.98504,0.49254"
       id="path845"
       inkscape:connector-curvature="0" />
    <path
       style="fill:none;fill-rule:evenodd;stroke:#999999;stroke-width:0.19700663px;stroke-linecap:butt;stroke-linejoin:miter;stroke-opacity:1"
       d="m 103.26295,243.3404 c 0.0234,0.11727 0.0326,0.23835 0.0704,0.3518 0.0105,0.0315 0.052,0.0428 0.0704,0.0704 0.0291,0.0436 0.0413,0.0971 0.0704,0.14072 0.0405,0.0607 0.15612,0.15613 0.21108,0.21108 0.0704,0.0704 0.12829,0.15589 0.21108,0.21108 0.0195,0.013 0.0494,-0.0105 0.0704,0 0.0297,0.0148 0.0407,0.0555 0.0704,0.0704 0.021,0.0105 0.0469,0 0.0704,0 0.0234,0.0234 0.0428,0.052 0.0704,0.0704 0.0131,0.009 0.27693,0.13621 0.28143,0.14072 0.0166,0.0166 -0.0166,0.0538 0,0.0704 0.004,0.005 0.26834,0.13198 0.28144,0.14072 0.0828,0.0552 0.13148,0.15138 0.21108,0.21108 0.042,0.0315 0.0971,0.0413 0.14072,0.0704 0.0276,0.0184 0.0407,0.0555 0.0704,0.0704 0.0663,0.0332 0.14475,0.0372 0.21109,0.0704 0.0297,0.0148 0.0469,0.0469 0.0704,0.0704 0.0469,0.0469 0.0938,0.0938 0.14072,0.14072 0.0235,0.0235 0.0428,0.052 0.0704,0.0704 0.0436,0.0291 0.10363,0.0333 0.14072,0.0704 0,0.10352 -0.0166,0.0538 0.0704,0.14071 0.0234,0.0234 0.0428,0.052 0.0704,0.0704 0.10253,0.0683 0.14655,0.0439 0.21108,0.14072 0.0291,0.0436 0.0413,0.0971 0.0704,0.14073 0.0184,0.0276 0.0555,0.0407 0.0704,0.0704 0.0105,0.021 -0.0105,0.0494 0,0.0704 0.0378,0.0756 0.1029,0.13544 0.14072,0.21107 0.0105,0.021 -0.0105,0.0494 0,0.0704 0.0148,0.0297 0.0599,0.0389 0.0704,0.0704 0.0148,0.0445 -0.0114,0.0952 0,0.14073 0.0254,0.10175 0.10755,0.18193 0.14072,0.28143 0.0151,0.0453 -0.0175,0.25524 0,0.28145 0.0368,0.0552 0.10392,0.0855 0.14072,0.14071 0.026,0.039 -0.0148,0.0962 0,0.14072 0.0166,0.0498 0.0538,0.091 0.0704,0.14073 0.0148,0.0445 -0.021,0.0988 0,0.14071 0.23335,0.23336 -0.0332,-0.0663 0.0704,0.14072 0.0148,0.0297 0.0555,0.0407 0.0704,0.0704 0.021,0.042 -0.021,0.0988 0,0.14073 0.0312,0.0624 0.16837,0.14703 0.21107,0.21108 0.0683,0.10253 0.0439,0.14654 0.14072,0.21107 0.0436,0.0291 0.0971,0.0413 0.14072,0.0704 0.0276,0.0184 0.0469,0.0469 0.0704,0.0704 0.0234,0.0234 0.052,0.0428 0.0704,0.0704 0.0291,0.0436 0.0389,0.0988 0.0704,0.14072 0.0735,0.098 0.19267,0.19267 0.28144,0.28144 0.0234,0.0234 0.052,0.0428 0.0704,0.0704 0.0291,0.0436 0.0413,0.0971 0.0704,0.14072 0.0368,0.0552 0.11105,0.0814 0.14072,0.14071 0.0105,0.021 -0.0105,0.0494 0,0.0704 0.10728,0.21457 0.0558,-0.12868 0.14072,0.21109 0.0114,0.0455 -0.021,0.0988 0,0.14072 0.0297,0.0593 0.10092,0.0876 0.14072,0.14071 0.0629,0.0839 0.0825,0.19417 0.14071,0.28144 0.0184,0.0276 0.0599,0.0389 0.0704,0.0704 0.0148,0.0445 -0.021,0.0988 0,0.14072 0.0297,0.0593 0.10092,0.0876 0.14072,0.14072 0.0315,0.042 0.0469,0.0938 0.0704,0.14072 0.0234,0.0469 0.0538,0.091 0.0704,0.14072 0.007,0.0222 -0.006,0.0476 0,0.0704 0.009,0.0366 0.0922,0.30328 0.14072,0.3518 0.0371,0.0371 0.0971,0.0413 0.14072,0.0704 0.16164,0.10776 -0.0302,0.0402 0.14072,0.21108 0.0166,0.0166 0.0508,-0.013 0.0704,0 0.0206,0.0137 0.24937,0.23335 0.28143,0.28144 0.0291,0.0436 0.0333,0.10364 0.0704,0.14072 0.0371,0.0371 0.0971,0.0413 0.14072,0.0704 0.0276,0.0184 0.0428,0.052 0.0704,0.0704 0.0436,0.0291 0.0971,0.0413 0.14072,0.0704 0.0276,0.0184 0.0428,0.052 0.0704,0.0704 0.0436,0.0291 0.0938,0.0469 0.14072,0.0704 0.0469,0.0234 0.091,0.0538 0.14071,0.0704 0.0222,0.007 0.0494,-0.0105 0.0704,0 0.0844,0.0422 0.12664,0.16887 0.21108,0.21108 0.0563,0.0282 0.15479,-0.0281 0.21107,0 0.0297,0.0148 0.0469,0.0469 0.0704,0.0704 0.0234,0.0234 0.052,0.0428 0.0704,0.0704 0.0291,0.0436 0.0413,0.0971 0.0704,0.14072 0.10776,0.16164 0.0402,-0.0302 0.21108,0.14071 0.005,0.004 0.13198,0.26834 0.14071,0.28144 0.0368,0.0552 0.10393,0.0855 0.14073,0.14072 0.0291,0.0436 0.0413,0.0971 0.0704,0.14072 0.0184,0.0276 0.0555,0.0407 0.0704,0.0704 0.0332,0.0663 0.0372,0.14475 0.0704,0.21108 0.0312,0.0624 0.16838,0.14703 0.21108,0.21108 0.1286,0.19291 0.0121,0.0885 0.14072,0.28144 0.0184,0.0276 0.0555,0.0407 0.0704,0.0704 0.021,0.042 -0.021,0.0988 0,0.14072 0.0148,0.0297 0.0555,0.0407 0.0704,0.0704 0.0332,0.0663 0.0524,0.13913 0.0704,0.21108 0.006,0.0228 -0.0105,0.0494 0,0.0704 0.161,0.32201 -0.0292,-0.29857 0.14072,0.21108 0.0698,0.20945 -0.16661,-0.14436 0.0704,0.21108 0.0184,0.0276 0.0599,0.0389 0.0704,0.0704 0.0148,0.0445 -0.0148,0.0962 0,0.14072 0.0105,0.0315 0.052,0.0428 0.0704,0.0704 0.0291,0.0436 0.0413,0.0971 0.0704,0.14072 0.0184,0.0276 0.0599,0.0389 0.0704,0.0704 0.0148,0.0445 -0.0148,0.0962 0,0.14072 0.0105,0.0315 0.0555,0.0407 0.0704,0.0704 0.0105,0.021 -0.0105,0.0494 0,0.0704 0.0148,0.0297 0.0555,0.0407 0.0704,0.0704 0.021,0.042 -0.021,0.0988 0,0.14072 0.0148,0.0297 0.0505,0.0438 0.0704,0.0704 0.0507,0.0677 0.09,0.14343 0.14072,0.21108 0.0199,0.0265 0.0555,0.0407 0.0704,0.0704 0.0105,0.021 -0.007,0.0481 0,0.0704 0.0332,0.0995 0.10755,0.18194 0.14072,0.28144 0.007,0.0222 -0.013,0.0508 0,0.0704 0.0368,0.0552 0.10092,0.0877 0.14072,0.14072 0.0315,0.042 0.0413,0.0971 0.0703,0.14072 0.0184,0.0276 0.0555,0.0407 0.0704,0.0704 0.0105,0.021 -0.007,0.0481 0,0.0704 0.0166,0.0497 0.0538,0.091 0.0704,0.14072 0.007,0.0222 -0.0105,0.0494 0,0.0704 0.0803,0.16057 0.15843,0.19383 0.21108,0.35181 0.007,0.0222 -0.0105,0.0494 0,0.0704 0.0148,0.0297 0.0555,0.0407 0.0704,0.0704 0.0332,0.0663 0.0292,0.14937 0.0704,0.21107 0.18559,0.2784 0.19955,0.10615 0.28144,0.35181 0.007,0.0222 -0.007,0.0481 0,0.0704 0.0166,0.0498 0.0509,0.092 0.0704,0.14071 0.0275,0.0689 0.0428,0.14223 0.0704,0.21108 0.039,0.0974 0.11528,0.17969 0.14072,0.28144 0.0114,0.0455 -0.009,0.0947 0,0.14073 0.0145,0.0727 0.0524,0.13912 0.0704,0.21107 0.006,0.0228 -0.007,0.0481 0,0.0704 0.0399,0.11982 0.10077,0.23199 0.14071,0.35181 0.007,0.0222 -0.0105,0.0494 0,0.0704 0.0346,0.0692 0.24682,0.2122 0.28144,0.28143 0.0233,0.0466 -0.0197,0.22248 0,0.28145 0.0166,0.0497 0.0576,0.0898 0.0704,0.14072 0.0157,0.0628 0,0.27035 0,0.35179 0,0.23454 0,0.46907 0,0.7036 0,0.0393 -0.0107,0.3196 0,0.3518 0.0105,0.0315 0.0469,0.0469 0.0704,0.0704 0.0469,0.0469 0.10392,0.0855 0.14072,0.14072 0.013,0.0195 -0.006,0.0476 0,0.0704 0.018,0.072 0.0372,0.14475 0.0704,0.21108 0.0224,0.0448 0.29651,0.29651 0.3518,0.3518 0.0234,0.0234 0.0469,0.0469 0.0704,0.0704 0.0234,0.0234 0.0555,0.0407 0.0704,0.0704 0.0105,0.021 -0.007,0.0481 0,0.0704 0.0166,0.0498 0.0538,0.091 0.0704,0.14072 0.007,0.0222 -0.0105,0.0494 0,0.0704 0.0148,0.0297 0.0555,0.0407 0.0704,0.0704 0.0208,0.0416 -0.0155,0.36016 0,0.42216 -0.0424,0.12735 0.11397,0.13086 0.14071,0.21108 0.0148,0.0445 0,0.0938 0,0.14072 0,0.0234 -0.0105,0.0494 0,0.0704 0.0148,0.0297 0.0555,0.0407 0.0704,0.0704 0.0105,0.021 0,0.0469 0,0.0704 0,0.0469 -0.0148,0.0962 0,0.14072 0.087,0.26083 0.0704,-0.0858 0.0704,0.14072 0,0.0234 0.0235,0.0704 0,0.0704 -0.0234,0 0,-0.0469 0,-0.0704"
       id="path847"
       inkscape:connector-curvature="0" />
    <path
       style="fill:none;fill-rule:evenodd;stroke:#999999;stroke-width:0.19700663px;stroke-linecap:butt;stroke-linejoin:miter;stroke-opacity:1"
       d="m 106.4995,242.49608 c 0.11727,0.0469 0.23883,0.0842 0.3518,0.14072 0.0297,0.0148 0.0491,0.0449 0.0704,0.0704 0.32257,0.3871 0.27079,0.33584 0.56287,0.77396 0.0469,0.0704 0.0809,0.15129 0.14072,0.21108 0.10619,0.10619 0.24561,0.17525 0.3518,0.28144 0.0598,0.0598 0.0879,0.14505 0.14072,0.21108 0.0414,0.0518 0.0938,0.0938 0.14072,0.14072 0.0235,0.0235 0.0428,0.052 0.0704,0.0704 0.0436,0.0291 0.091,0.0538 0.14071,0.0704 0.0222,0.007 0.0508,-0.013 0.0704,0 0.0552,0.0368 0.0855,0.10393 0.14072,0.14072 0.0195,0.013 0.0481,-0.007 0.0704,0 0.0995,0.0332 0.18194,0.10755 0.28144,0.14072 0.0917,0.0306 0.19165,0.0344 0.28144,0.0704 0.0898,0.0359 0.0834,0.15378 0.14072,0.21108 0.17442,0.17443 0.18523,0.10004 0.35179,0.21108 0.0552,0.0368 0.0855,0.10392 0.14072,0.14072 0.0436,0.0291 0.0971,0.0413 0.14072,0.0704 0.13939,-0.007 0.0333,0.10364 0.0704,0.14072 0.0598,0.0598 0.14343,0.09 0.21108,0.14072 0.0265,0.0199 0.0469,0.0469 0.0704,0.0704 0.0234,0.0234 0.052,0.0428 0.0704,0.0704 0.0291,0.0436 0.0333,0.10364 0.0704,0.14072 0.0371,0.0371 0.0988,0.0389 0.14072,0.0704 0.54972,0.41229 -0.32085,-0.12524 0.3518,0.21108 0.0807,0.0403 0.0979,0.14681 0.14072,0.21108 0.0184,0.0276 0.0555,0.0407 0.0704,0.0704 0.0105,0.021 -0.013,0.0508 0,0.0704 0.0368,0.0552 0.10092,0.0876 0.14072,0.14072 0.0315,0.0419 0.0413,0.0971 0.0704,0.14072 0.0184,0.0276 0.0469,0.0469 0.0704,0.0704 0.0234,0.0469 0.0413,0.0971 0.0704,0.14072 0.0368,0.0552 0.11106,0.0814 0.14073,0.14072 0.0105,0.021 -0.0105,0.0494 0,0.0704 0.0148,0.0297 0.052,0.0428 0.0704,0.0704 0.0291,0.0436 0.0413,0.0971 0.0704,0.14072 0.0405,0.0607 0.15612,0.15613 0.21107,0.21108 0.0469,0.0469 0.0938,0.0938 0.14073,0.14072 0.0235,0.0234 0.0555,0.0407 0.0704,0.0704 0.0105,0.021 0,0.0469 0,0.0704 0.0234,0.0469 0.0413,0.0971 0.0704,0.14073 0.0368,0.0552 0.11105,0.0814 0.14071,0.14071 0.021,0.042 -0.021,0.0988 0,0.14072 0.0148,0.0297 0.0469,0.0469 0.0704,0.0704 0,0.0469 -0.0148,0.0962 0,0.14072 0.0105,0.0315 0.0555,0.0407 0.0704,0.0704 0.0191,0.0381 -0.01,0.32779 0,0.35179 0.0246,0.0616 0.10393,0.0855 0.14072,0.14072 0.013,0.0195 -0.007,0.0481 0,0.0704 0.0332,0.0995 0.11528,0.17969 0.14072,0.28144 0.0114,0.0455 -0.0148,0.0962 0,0.14072 0.0105,0.0315 0.0599,0.0389 0.0704,0.0704 0.0148,0.0445 -0.0148,0.0962 0,0.14071 0.021,0.0629 0.11975,0.0778 0.14072,0.14072 0.0148,0.0445 -0.0148,0.0962 0,0.14072 0.0105,0.0315 0.0599,0.0389 0.0704,0.0704 0.0148,0.0445 -0.0114,0.0952 0,0.14071 0.0127,0.0509 0.0538,0.091 0.0704,0.14072 0.0222,0.0667 -0.0223,0.14433 0,0.21108 0.0105,0.0315 0.0555,0.0407 0.0704,0.0704 0.0105,0.021 0,0.0469 0,0.0704 0.0235,0.0469 0.0413,0.0971 0.0704,0.14071 0.0368,0.0552 0.11106,0.0814 0.14072,0.14072 0.0485,0.097 -0.0852,0.0629 0.0704,0.14073 0.021,0.0105 0.0538,-0.0166 0.0704,0 0.0371,0.0371 0.0333,0.10363 0.0704,0.14071 0.0371,0.0371 0.0971,0.0413 0.14072,0.0704 0.0552,0.0368 0.0814,0.11106 0.14071,0.14072 0.15018,0.0751 -0.009,-0.0751 0.14072,0 0.0297,0.0148 0.0469,0.0469 0.0704,0.0704 0.0234,0.0234 0.0469,0.0469 0.0704,0.0704 0.0704,0.0704 0.14072,0.14073 0.21108,0.21109 0.0235,0.0234 0.0555,0.0407 0.0704,0.0704 0.0105,0.021 -0.0105,0.0494 0,0.0704 0.161,0.32201 -0.0292,-0.29857 0.14071,0.21108 0.007,0.0222 -0.0105,0.0494 0,0.0704 0.0312,0.0624 0.16838,0.14703 0.21108,0.21108 0.25508,0.51015 -0.0742,-0.11125 0.14072,0.21107 0.0291,0.0436 0.0413,0.0971 0.0704,0.14073 0.0368,0.0552 0.11105,0.0814 0.14072,0.14071 0.0105,0.021 -0.0105,0.0494 0,0.0704 0.0148,0.0297 0.0555,0.0407 0.0704,0.0704 0.0105,0.021 0,0.0469 0,0.0704 0,0.0704 -0.0138,0.14209 0,0.21109 0.0566,0.28313 0.0513,0.0323 0.14072,0.21107 0.0375,0.075 -0.0375,0.0657 0,0.14072 0.0422,0.0844 0.16886,0.12665 0.21107,0.21109 0.0105,0.021 -0.0105,0.0494 0,0.0704 0.0148,0.0297 0.0469,0.0469 0.0704,0.0704 0.0805,0.0805 0.0981,0.0833 0.14072,0.21108 0.007,0.0222 -0.0105,0.0494 0,0.0704 0.0297,0.0593 0.11105,0.0814 0.14072,0.14071 0.0332,0.0663 0.0372,0.14475 0.0704,0.21108 0.16101,0.32201 -0.0292,-0.29856 0.14072,0.21109 0.0201,0.0603 -0.0155,0.21936 0,0.28143 0.0127,0.0509 0.0538,0.091 0.0704,0.14073 0.0148,0.0445 -0.0148,0.0962 0,0.14071 0.0166,0.0497 0.0538,0.091 0.0704,0.14072 0.0211,0.0633 -0.0211,0.14776 0,0.21108 0.16988,0.50965 -0.0203,-0.11093 0.14072,0.21108 0.021,0.042 -0.0148,0.0962 0,0.14072 0.19931,0.39864 -0.0262,-0.10488 0.0704,0.28144 0.0127,0.0509 0.0576,0.0898 0.0704,0.14072 0.009,0.0343 -0.0186,0.24424 0,0.28144 0.0148,0.0297 0.0599,0.0389 0.0704,0.0704 0.0148,0.0445 -0.021,0.0988 0,0.14072 0.22908,0.45817 0.0705,-0.14025 0.21108,0.28144 0.007,0.0222 -0.007,0.0481 0,0.0704 0.0332,0.0995 0.10755,0.18193 0.14072,0.28143 0.0148,0.0445 -0.021,0.0988 0,0.14072 0.0297,0.0593 0.11974,0.0778 0.14072,0.14072 0.0148,0.0445 -0.0148,0.0962 0,0.14072 0.0105,0.0315 0.0555,0.0407 0.0704,0.0704 0.0105,0.021 -0.0105,0.0494 0,0.0704 0.0148,0.0297 0.0599,0.0389 0.0704,0.0704 0,0.3203 -0.0332,0.004 0.0704,0.21109 0.021,0.042 -0.026,0.10169 0,0.14071 0.0368,0.0552 0.10659,0.0838 0.14072,0.14072 0.0382,0.0636 0.0428,0.14222 0.0704,0.21109 0.0195,0.0487 0.0538,0.091 0.0704,0.14071 0.007,0.0222 -0.007,0.0481 0,0.0704 0.0166,0.0498 0.0576,0.0898 0.0704,0.14072 0.0114,0.0455 -0.021,0.0988 0,0.14072 0.0445,0.089 0.14072,0.14072 0.21108,0.21108 0.0704,0.0704 0.14072,0.14072 0.21108,0.21108 0.0234,0.0234 0.052,0.0428 0.0704,0.0704 0.0291,0.0436 0.0413,0.0971 0.0704,0.14072 0.0368,0.0552 0.11106,0.0814 0.14072,0.14072 0.0105,0.021 -0.006,0.0476 0,0.0704 0.018,0.072 0.0372,0.14474 0.0704,0.21108 0.0148,0.0297 0.0555,0.0407 0.0704,0.0704 0.0105,0.021 0,0.0469 0,0.0704 0,0.0469 -0.0114,0.0952 0,0.14072 -0.0424,0.12735 0.11398,0.13086 0.14072,0.21108 0.0148,0.0445 0,0.0938 0,0.14072 0,0.0234 -0.0105,0.0494 0,0.0704 0.0148,0.0297 0.0469,0.0469 0.0704,0.0704 0,0.0704 -0.0171,0.14282 0,0.21108 0.0141,0.0562 0.19145,0.15218 0.21108,0.21108 0.0148,0.0445 -0.021,0.0988 0,0.14072 0.0105,0.021 0.0494,-0.0105 0.0704,0 0.0376,0.0188 0.17404,0.17404 0.21108,0.21108 0.0234,0.0234 0.0469,0.0469 0.0704,0.0704 0.0235,0.0234 0.0938,0.0469 0.0704,0.0704 -0.0234,0.0235 -0.0704,-0.10353 -0.0704,-0.0704 0,0.0524 0.0576,0.0898 0.0704,0.14072 0.0966,0.38633 -0.12895,-0.1172 0.0704,0.28144"
       id="path851"
       inkscape:connector-curvature="0" />
    <path
       style="fill:none;fill-rule:evenodd;stroke:#ff00ff;stroke-width:0.19700663px;stroke-linecap:butt;stroke-linejoin:miter;stroke-opacity:1"
       d="m 90.668583,241.29997 14.001557,33.20986"
       id="path853"
       inkscape:connector-curvature="0" />
    <path
       style="fill:none;fill-rule:evenodd;stroke:#ff00ff;stroke-width:0.19700663px;stroke-linecap:butt;stroke-linejoin:miter;stroke-opacity:1"
       d="m 113.25402,237.28945 19.98212,26.80713"
       id="path855"
       inkscape:connector-curvature="0" />
    <text
       xml:space="preserve"
       style="font-style:normal;font-weight:normal;font-size:4.23333311px;line-height:125%;font-family:sans-serif;letter-spacing:0px;word-spacing:0px;fill:#000000;fill-opacity:1;stroke:none;stroke-width:0.26458332px;stroke-linecap:butt;stroke-linejoin:miter;stroke-opacity:1"
       x="32.883926"
       y="55.189732"
       id="text859"><tspan
         sodipodi:role="line"
         id="tspan857"
         x="32.883926"
         y="58.935238"
         style="fill:#000000;stroke:none;stroke-width:0.26458332px" /></text>
    <text
       xml:space="preserve"
       style="font-style:normal;font-weight:normal;font-size:3.15210605px;line-height:125%;font-family:sans-serif;letter-spacing:0px;word-spacing:0px;fill:#000000;fill-opacity:1;stroke:none;stroke-width:0.19700663px;stroke-linecap:butt;stroke-linejoin:miter;stroke-opacity:1"
       x="74.41555"
       y="280.98108"
       id="text863"><tspan
         sodipodi:role="line"
         id="tspan861"
         x="74.41555"
         y="280.98108"
         style="fill:#ff00ff;stroke-width:0.19700663px">poloidal spacing set</tspan><tspan
         sodipodi:role="line"
         x="74.41555"
         y="284.9212"
         style="fill:#ff00ff;stroke-width:0.19700663px"
         id="tspan865">as fixed function of</tspan><tspan
         sodipodi:role="line"
         x="74.41555"
         y="288.86136"
         style="fill:#ff00ff;stroke-width:0.19700663px"
         id="tspan867">poloidal distance from</tspan><tspan
         sodipodi:role="line"
         x="74.41555"
         y="292.80148"
         style="fill:#ff00ff;stroke-width:0.19700663px"
         id="tspan869">target</tspan></text>
    <text
       xml:space="preserve"
       style="font-style:normal;font-weight:normal;font-size:3.15210605px;line-height:125%;font-family:sans-serif;letter-spacing:0px;word-spacing:0px;fill:#000000;fill-opacity:1;stroke:none;stroke-width:0.19700663px;stroke-linecap:butt;stroke-linejoin:miter;stroke-opacity:1"
       x="108.96204"
       y="271.62332"
       id="text873"><tspan
         sodipodi:role="line"
         id="tspan871"
         x="108.96204"
         y="271.62332"
         style="fill:#ff00ff;stroke-width:0.19700663px">poloidal spacing</tspan><tspan
         sodipodi:role="line"
         x="108.96204"
         y="275.56345"
         style="fill:#ff00ff;stroke-width:0.19700663px"
         id="tspan875">set by putting</tspan><tspan
         sodipodi:role="line"
         x="108.96204"
         y="279.5036"
         style="fill:#ff00ff;stroke-width:0.19700663px"
         id="tspan895">ponits close to</tspan><tspan
         sodipodi:role="line"
         x="108.96204"
         y="283.44373"
         style="fill:#ff00ff;stroke-width:0.19700663px"
         id="tspan877">an orthogonal grid</tspan></text>
    <text
       xml:space="preserve"
       style="font-style:normal;font-weight:normal;font-size:3.15210605px;line-height:125%;font-family:sans-serif;letter-spacing:0px;word-spacing:0px;fill:#000000;fill-opacity:1;stroke:none;stroke-width:0.19700663px;stroke-linecap:butt;stroke-linejoin:miter;stroke-opacity:1"
       x="137.31685"
       y="256.14417"
       id="text881"><tspan
         sodipodi:role="line"
         id="tspan879"
         x="137.31685"
         y="256.14417"
         style="fill:#ff00ff;stroke-width:0.19700663px">poloidal spacing set</tspan><tspan
         sodipodi:role="line"
         x="137.31685"
         y="260.08432"
         style="fill:#ff00ff;stroke-width:0.19700663px"
         id="tspan883">as fixed function of</tspan><tspan
         sodipodi:role="line"
         x="137.31685"
         y="264.02444"
         style="fill:#ff00ff;stroke-width:0.19700663px"
         id="tspan885">perpendicular distance</tspan><tspan
         sodipodi:role="line"
         x="137.31685"
         y="267.96457"
         style="fill:#ff00ff;stroke-width:0.19700663px"
         id="tspan887">from line at end of</tspan><tspan
         sodipodi:role="line"
         x="137.31685"
         y="271.90472"
         style="fill:#ff00ff;stroke-width:0.19700663px"
         id="tspan889">segment</tspan></text>
    <path
       style="fill:#ff00ff;fill-rule:evenodd;stroke:#ff00ff;stroke-width:0.19700663px;stroke-linecap:butt;stroke-linejoin:miter;stroke-opacity:1;marker-start:url(#Arrow1Mstart);marker-end:url(#Arrow1Mend)"
       d="m 86.58773,241.37033 6.895233,-1.12576"
       id="path897"
       inkscape:connector-curvature="0" />
    <path
       style="fill:#ff00ff;fill-rule:evenodd;stroke:#ff00ff;stroke-width:0.2327472px;stroke-linecap:butt;stroke-linejoin:miter;stroke-opacity:1;marker-start:url(#Arrow1Mstart-3);marker-end:url(#Arrow1Mend-8)"
       d="m 110.10684,237.78913 5.09824,-2.12512"
       id="path897-5"
       inkscape:connector-curvature="0" />
    <text
       xml:space="preserve"
       style="font-style:normal;font-weight:normal;font-size:3.15210605px;line-height:125%;font-family:sans-serif;letter-spacing:0px;word-spacing:0px;fill:#000000;fill-opacity:1;stroke:none;stroke-width:0.19700663px;stroke-linecap:butt;stroke-linejoin:miter;stroke-opacity:1"
       x="72.234406"
       y="226.80464"
       id="text2082"><tspan
         sodipodi:role="line"
         id="tspan2080"
         x="72.234406"
         y="226.80464"
         style="fill:#ff00ff;stroke-width:0.19700663px">blend between</tspan><tspan
         sodipodi:role="line"
         x="72.234406"
         y="230.74478"
         style="fill:#ff00ff;stroke-width:0.19700663px"
         id="tspan2084">poloidal spacing</tspan><tspan
         sodipodi:role="line"
         x="72.234406"
         y="234.68491"
         style="fill:#ff00ff;stroke-width:0.19700663px"
         id="tspan2086">methods from</tspan><tspan
         sodipodi:role="line"
         x="72.234406"
         y="238.62505"
         style="fill:#ff00ff;stroke-width:0.19700663px"
         id="tspan2088">adjacent regions</tspan></text>
    <text
       xml:space="preserve"
       style="font-style:normal;font-weight:normal;font-size:3.15210605px;line-height:125%;font-family:sans-serif;letter-spacing:0px;word-spacing:0px;fill:#000000;fill-opacity:1;stroke:none;stroke-width:0.19700663px;stroke-linecap:butt;stroke-linejoin:miter;stroke-opacity:1"
       x="99.684731"
       y="222.74915"
       id="text2082-6"><tspan
         sodipodi:role="line"
         id="tspan2080-6"
         x="99.684731"
         y="222.74915"
         style="fill:#ff00ff;stroke-width:0.19700663px">blend between</tspan><tspan
         sodipodi:role="line"
         x="99.684731"
         y="226.68929"
         style="fill:#ff00ff;stroke-width:0.19700663px"
         id="tspan2084-4">poloidal spacing</tspan><tspan
         sodipodi:role="line"
         x="99.684731"
         y="230.62941"
         style="fill:#ff00ff;stroke-width:0.19700663px"
         id="tspan2086-0">methods from</tspan><tspan
         sodipodi:role="line"
         x="99.684731"
         y="234.56955"
         style="fill:#ff00ff;stroke-width:0.19700663px"
         id="tspan2088-0">adjacent regions</tspan></text>
    <path
       style="fill:#0000ff;fill-rule:evenodd;stroke:#0000ff;stroke-width:0.30347112px;stroke-linecap:butt;stroke-linejoin:miter;stroke-opacity:1;marker-start:url(#Arrow1Mstart-39);marker-end:url(#Arrow1Mend-9)"
       d="m 86.165574,257.62346 9.317817,-1.97675"
       id="path897-9"
       inkscape:connector-curvature="0" />
    <path
       style="fill:#0000ff;fill-rule:evenodd;stroke:#0000ff;stroke-width:0.46816874px;stroke-linecap:butt;stroke-linejoin:miter;stroke-opacity:1;marker-start:url(#Arrow1Mstart-39-3);marker-end:url(#Arrow1Mend-9-0)"
       d="m 122.36117,247.32047 7.63839,-5.73899"
       id="path897-9-6"
       inkscape:connector-curvature="0" />
    <text
       xml:space="preserve"
       style="font-style:normal;font-weight:normal;font-size:3.15210605px;line-height:125%;font-family:sans-serif;letter-spacing:0px;word-spacing:0px;fill:#000000;fill-opacity:1;stroke:none;stroke-width:0.19700663px;stroke-linecap:butt;stroke-linejoin:miter;stroke-opacity:1"
       x="2.5784652"
       y="258.88818"
       id="text2178"><tspan
         sodipodi:role="line"
         id="tspan2176"
         x="2.5784652"
         y="258.88818"
         style="fill:#0000ff;stroke-width:0.19700663px">nonorthogonal_target_all_poloidal_spacing_range_*</tspan></text>
    <text
       xml:space="preserve"
       style="font-style:normal;font-weight:normal;font-size:3.15210605px;line-height:125%;font-family:sans-serif;letter-spacing:0px;word-spacing:0px;fill:#000000;fill-opacity:1;stroke:none;stroke-width:0.19700663px;stroke-linecap:butt;stroke-linejoin:miter;stroke-opacity:1"
       x="130.93088"
       y="239.45062"
       id="text2178-0"
       inkscape:export-xdpi="96"
       inkscape:export-ydpi="96"><tspan
         sodipodi:role="line"
         x="130.93088"
         y="239.45062"
         style="fill:#0000ff;stroke-width:0.19700663px"
         id="tspan2198">nonorthogonal_xpoint_poloidal_spacing_range_*</tspan></text>
  </g>
</svg>
